<mxfile host="Electron" modified="2024-07-27T06:58:01.733Z" agent="Mozilla/5.0 (Windows NT 10.0; Win64; x64) AppleWebKit/537.36 (KHTML, like Gecko) draw.io/24.5.3 Chrome/124.0.6367.207 Electron/30.0.6 Safari/537.36" etag="AbXzMWPGpakuc0edaGTx" version="24.5.3" type="device">
  <diagram name="Page-1" id="efa7a0a1-bf9b-a30e-e6df-94a7791c09e9">
    <mxGraphModel dx="3277" dy="1680" grid="0" gridSize="10" guides="1" tooltips="1" connect="1" arrows="1" fold="1" page="0" pageScale="1" pageWidth="1169" pageHeight="827" background="#ffffff" math="0" shadow="0">
      <root>
        <mxCell id="0" />
        <mxCell id="1" parent="0" />
        <mxCell id="XHzrQX2ppPqFaPMvTT7x-58" value="" style="rounded=1;whiteSpace=wrap;html=1;strokeColor=default;fillColor=#99CCFF;opacity=60;" parent="1" vertex="1">
          <mxGeometry x="-39" y="-457" width="743" height="800" as="geometry" />
        </mxCell>
        <mxCell id="g109RXZzPeZsBb1zn4cU-146" value="&lt;p style=&quot;margin: 0px ; margin-top: 4px ; text-align: center ; text-decoration: underline&quot;&gt;&lt;strong&gt;Context&lt;/strong&gt;&lt;/p&gt;&lt;hr&gt;&lt;p style=&quot;margin: 0px ; margin-left: 8px&quot;&gt;id:ID&lt;/p&gt;&lt;p style=&quot;margin: 0px ; margin-left: 8px&quot;&gt;&lt;span style=&quot;background-color: initial;&quot;&gt;vision: string&lt;/span&gt;&lt;br&gt;&lt;/p&gt;&lt;p style=&quot;margin: 0px ; margin-left: 8px&quot;&gt;&lt;span&gt;who: string&lt;/span&gt;&lt;/p&gt;&lt;p style=&quot;margin: 0px ; margin-left: 8px&quot;&gt;&lt;span&gt;impact: string&lt;/span&gt;&lt;/p&gt;&lt;div&gt;&lt;span&gt;&lt;br&gt;&lt;/span&gt;&lt;/div&gt;" style="verticalAlign=top;align=left;overflow=fill;fontSize=12;fontFamily=Helvetica;html=1;strokeColor=#003366;shadow=1;fontColor=#003366;fillColor=#9AC7BF;" parent="1" vertex="1">
          <mxGeometry x="163" y="388.5" width="246" height="151.5" as="geometry" />
        </mxCell>
        <mxCell id="22" value="&lt;p style=&quot;margin: 0px ; margin-top: 4px ; text-align: center ; text-decoration: underline&quot;&gt;&lt;b&gt;User&lt;/b&gt;&lt;/p&gt;&lt;hr&gt;&lt;p style=&quot;margin: 0px ; margin-left: 8px&quot;&gt;&lt;span style=&quot;background-color: initial;&quot;&gt;email: String&lt;/span&gt;&lt;br&gt;&lt;/p&gt;&lt;p style=&quot;margin: 0px ; margin-left: 8px&quot;&gt;phone: string&lt;/p&gt;&lt;p style=&quot;margin: 0px ; margin-left: 8px&quot;&gt;firstName: String&lt;/p&gt;&lt;p style=&quot;margin: 0px ; margin-left: 8px&quot;&gt;lastName: String&lt;/p&gt;" style="verticalAlign=top;align=left;overflow=fill;fontSize=12;fontFamily=Helvetica;html=1;strokeColor=#003366;shadow=1;fontColor=#003366;fillColor=#99FFCC;" parent="1" vertex="1">
          <mxGeometry x="1230" y="314.5" width="161" height="128" as="geometry" />
        </mxCell>
        <mxCell id="g109RXZzPeZsBb1zn4cU-131" value="&lt;p style=&quot;margin: 0px ; margin-top: 4px ; text-align: center ; text-decoration: underline&quot;&gt;&lt;b&gt;UserGroup&lt;/b&gt;&lt;/p&gt;&lt;hr&gt;&lt;p style=&quot;margin: 0px ; margin-left: 8px&quot;&gt;id: ID&lt;/p&gt;&lt;p style=&quot;margin: 0px ; margin-left: 8px&quot;&gt;name: string&lt;/p&gt;&lt;p style=&quot;margin: 0px ; margin-left: 8px&quot;&gt;members: User[]&lt;/p&gt;&lt;p style=&quot;margin: 0px ; margin-left: 8px&quot;&gt;profile: Profile&lt;/p&gt;" style="verticalAlign=top;align=left;overflow=fill;fontSize=12;fontFamily=Helvetica;html=1;strokeColor=#003366;shadow=1;fillColor=#99FFCC;fontColor=#003366" parent="1" vertex="1">
          <mxGeometry x="823" y="202" width="148" height="105" as="geometry" />
        </mxCell>
        <mxCell id="lY5sdVedkNxhWJHI0kl--30" style="edgeStyle=orthogonalEdgeStyle;rounded=0;orthogonalLoop=1;jettySize=auto;html=1;" parent="1" source="uUSE7LgSBabqXevBdUgd-38" target="lY5sdVedkNxhWJHI0kl--29" edge="1">
          <mxGeometry relative="1" as="geometry" />
        </mxCell>
        <mxCell id="uUSE7LgSBabqXevBdUgd-38" value="&lt;p style=&quot;margin: 0px ; margin-top: 4px ; text-align: center ; text-decoration: underline&quot;&gt;&lt;b&gt;Tagset&lt;/b&gt;&lt;/p&gt;&lt;hr&gt;&lt;p style=&quot;margin: 0px ; margin-left: 8px&quot;&gt;id: ID&lt;/p&gt;&lt;p style=&quot;margin: 0px ; margin-left: 8px&quot;&gt;name: string&lt;/p&gt;&lt;p style=&quot;margin: 0px ; margin-left: 8px&quot;&gt;tags: string[]&lt;/p&gt;&lt;p style=&quot;margin: 0px ; margin-left: 8px&quot;&gt;tagsetTemplaet: TagsetTemplate&lt;/p&gt;&lt;p style=&quot;margin: 0px ; margin-left: 8px&quot;&gt;type: string&lt;/p&gt;&lt;p style=&quot;margin: 0px ; margin-left: 8px&quot;&gt;allowedValues(field)&lt;/p&gt;&lt;p style=&quot;margin: 0px ; margin-left: 8px&quot;&gt;&lt;br&gt;&lt;/p&gt;" style="verticalAlign=top;align=left;overflow=fill;fontSize=12;fontFamily=Helvetica;html=1;strokeColor=#666666;shadow=1;fillColor=#f5f5f5;fontColor=#333333;" parent="1" vertex="1">
          <mxGeometry x="887" y="940" width="188" height="135" as="geometry" />
        </mxCell>
        <mxCell id="52S6UJCDuXW4AV97fZFU-30" value="&lt;p style=&quot;margin: 0px ; margin-top: 4px ; text-align: center ; text-decoration: underline&quot;&gt;&lt;b&gt;Profile&lt;/b&gt;&lt;/p&gt;&lt;hr&gt;&lt;p style=&quot;margin: 0px ; margin-left: 8px&quot;&gt;id: ID&lt;/p&gt;&lt;p style=&quot;margin: 0px ; margin-left: 8px&quot;&gt;displayName: string&lt;/p&gt;&lt;p style=&quot;margin: 0px ; margin-left: 8px&quot;&gt;tagline: string&lt;/p&gt;&lt;p style=&quot;margin: 0px ; margin-left: 8px&quot;&gt;&lt;span style=&quot;background-color: initial;&quot;&gt;description: Markdown&lt;/span&gt;&lt;br&gt;&lt;/p&gt;&lt;p style=&quot;margin: 0px ; margin-left: 8px&quot;&gt;tagsets: Tagset[]&lt;/p&gt;&lt;p style=&quot;margin: 0px ; margin-left: 8px&quot;&gt;references: Reference[]&lt;/p&gt;&lt;p style=&quot;border-color: var(--border-color); margin: 0px 0px 0px 8px;&quot;&gt;visuals: Visual[]&lt;/p&gt;&lt;p style=&quot;margin: 0px ; margin-left: 8px&quot;&gt;location: Location&lt;/p&gt;&lt;p style=&quot;margin: 0px ; margin-left: 8px&quot;&gt;storage: StorageBucket&lt;/p&gt;&lt;p style=&quot;margin: 0px ; margin-left: 8px&quot;&gt;&lt;br&gt;&lt;/p&gt;" style="verticalAlign=top;align=left;overflow=fill;fontSize=12;fontFamily=Helvetica;html=1;strokeColor=#666666;shadow=1;fillColor=#f5f5f5;fontColor=#333333;" parent="1" vertex="1">
          <mxGeometry x="1118" y="686.5" width="165" height="181.5" as="geometry" />
        </mxCell>
        <mxCell id="52S6UJCDuXW4AV97fZFU-38" value="&lt;p style=&quot;margin: 0px ; margin-top: 4px ; text-align: center ; text-decoration: underline&quot;&gt;&lt;b&gt;Reference&lt;/b&gt;&lt;/p&gt;&lt;hr&gt;&lt;p style=&quot;margin: 0px ; margin-left: 8px&quot;&gt;id: ID&lt;/p&gt;&lt;p style=&quot;margin: 0px ; margin-left: 8px&quot;&gt;name: string&lt;/p&gt;&lt;p style=&quot;margin: 0px ; margin-left: 8px&quot;&gt;uri: string&lt;/p&gt;&lt;p style=&quot;margin: 0px ; margin-left: 8px&quot;&gt;description: string&lt;/p&gt;&lt;p style=&quot;margin: 0px ; margin-left: 8px&quot;&gt;&lt;br&gt;&lt;/p&gt;" style="verticalAlign=top;align=left;overflow=fill;fontSize=12;fontFamily=Helvetica;html=1;strokeColor=#666666;shadow=1;fillColor=#f5f5f5;fontColor=#333333;" parent="1" vertex="1">
          <mxGeometry x="915" y="686" width="131.5" height="103" as="geometry" />
        </mxCell>
        <mxCell id="G8CPrSdooPZw7x7xq0sv-33" value="&lt;p style=&quot;margin: 0px ; margin-top: 4px ; text-align: center ; text-decoration: underline&quot;&gt;&lt;strong&gt;Post&lt;/strong&gt;&lt;/p&gt;&lt;hr&gt;&lt;p style=&quot;margin: 0px ; margin-left: 8px&quot;&gt;id: ID&lt;/p&gt;&lt;p style=&quot;margin: 0px ; margin-left: 8px&quot;&gt;nameID: string&lt;/p&gt;&lt;p style=&quot;margin: 0px ; margin-left: 8px&quot;&gt;profile: Profile&lt;br&gt;&lt;/p&gt;&lt;p style=&quot;margin: 0px ; margin-left: 8px&quot;&gt;&lt;span&gt;createdBy: User&lt;/span&gt;&lt;/p&gt;&lt;p style=&quot;margin: 0px ; margin-left: 8px&quot;&gt;comments: Room&lt;/p&gt;" style="verticalAlign=top;align=left;overflow=fill;fontSize=12;fontFamily=Helvetica;html=1;strokeColor=#d6b656;shadow=1;fillColor=#FFFFCC;opacity=60;" parent="1" vertex="1">
          <mxGeometry x="-46" y="1141" width="161" height="131" as="geometry" />
        </mxCell>
        <mxCell id="szzaWboSxo6sRydHjCB_-29" value="&lt;p style=&quot;margin: 0px ; margin-top: 4px ; text-align: center ; text-decoration: underline&quot;&gt;&lt;b&gt;Community&lt;/b&gt;&lt;/p&gt;&lt;hr&gt;&lt;p style=&quot;margin: 0px ; margin-left: 8px&quot;&gt;id: ID&lt;/p&gt;&amp;nbsp; displayName: string&lt;br&gt;&lt;p style=&quot;margin: 0px ; margin-left: 8px&quot;&gt;policy: string&lt;/p&gt;&lt;p style=&quot;margin: 0px ; margin-left: 8px&quot;&gt;members: Contributor[]&lt;/p&gt;&lt;p style=&quot;margin: 0px ; margin-left: 8px&quot;&gt;leads: Contributor[]&lt;/p&gt;&lt;p style=&quot;margin: 0px ; margin-left: 8px&quot;&gt;groups: UserGroup[]&lt;/p&gt;&lt;p style=&quot;margin: 0px ; margin-left: 8px&quot;&gt;applicationForm: Form&lt;/p&gt;&lt;p style=&quot;margin: 0px ; margin-left: 8px&quot;&gt;applications: Application[]&lt;/p&gt;&lt;p style=&quot;margin: 0px ; margin-left: 8px&quot;&gt;invitations: Invitation[]&lt;/p&gt;&lt;p style=&quot;margin: 0px ; margin-left: 8px&quot;&gt;&lt;br&gt;&lt;/p&gt;" style="verticalAlign=top;align=left;overflow=fill;fontSize=12;fontFamily=Helvetica;html=1;strokeColor=#003366;shadow=1;fillColor=#99FFCC;fontColor=#003366" parent="1" vertex="1">
          <mxGeometry x="747" y="-68" width="221" height="195" as="geometry" />
        </mxCell>
        <mxCell id="szzaWboSxo6sRydHjCB_-33" value="0..n" style="endArrow=open;html=1;endSize=12;startArrow=diamondThin;startSize=14;startFill=1;edgeStyle=orthogonalEdgeStyle;align=left;verticalAlign=bottom;strokeWidth=1;entryX=0;entryY=0.5;entryDx=0;entryDy=0;exitX=1;exitY=0.75;exitDx=0;exitDy=0;" parent="1" source="szzaWboSxo6sRydHjCB_-29" target="FQ2XHo6aB85YoyOK63lh-29" edge="1">
          <mxGeometry relative="1" as="geometry">
            <mxPoint x="883" y="426" as="sourcePoint" />
            <mxPoint x="989" y="771" as="targetPoint" />
          </mxGeometry>
        </mxCell>
        <mxCell id="szzaWboSxo6sRydHjCB_-34" value="&lt;p style=&quot;margin: 0px ; margin-top: 4px ; text-align: center ; text-decoration: underline&quot;&gt;&lt;b&gt;CommunityApplication&lt;/b&gt;&lt;/p&gt;&lt;hr&gt;&lt;p style=&quot;margin: 0px ; margin-left: 8px&quot;&gt;id: ID&lt;/p&gt;&lt;p style=&quot;margin: 0px ; margin-left: 8px&quot;&gt;user: User&lt;/p&gt;&lt;p style=&quot;margin: 0px ; margin-left: 8px&quot;&gt;livecycle: Lifecycle&lt;/p&gt;&lt;p style=&quot;margin: 0px ; margin-left: 8px&quot;&gt;questions: NVP[]&lt;/p&gt;&lt;p style=&quot;margin: 0px ; margin-left: 8px&quot;&gt;&lt;br&gt;&lt;/p&gt;" style="verticalAlign=top;align=left;overflow=fill;fontSize=12;fontFamily=Helvetica;html=1;strokeColor=#003366;shadow=1;fillColor=#99FFCC;fontColor=#003366" parent="1" vertex="1">
          <mxGeometry x="1039" y="-122" width="149" height="99" as="geometry" />
        </mxCell>
        <mxCell id="szzaWboSxo6sRydHjCB_-37" value="" style="edgeStyle=orthogonalEdgeStyle;fontSize=12;html=1;endArrow=ERmandOne;startArrow=ERmandOne;entryX=0.25;entryY=1;entryDx=0;entryDy=0;exitX=0.5;exitY=0;exitDx=0;exitDy=0;" parent="1" source="g109RXZzPeZsBb1zn4cU-146" target="XHzrQX2ppPqFaPMvTT7x-48" edge="1">
          <mxGeometry width="100" height="100" relative="1" as="geometry">
            <mxPoint x="-16" y="2" as="sourcePoint" />
            <mxPoint x="234" y="138.6300000000001" as="targetPoint" />
          </mxGeometry>
        </mxCell>
        <mxCell id="szzaWboSxo6sRydHjCB_-41" value="0..n" style="endArrow=open;html=1;endSize=12;startArrow=diamondThin;startSize=14;startFill=1;edgeStyle=orthogonalEdgeStyle;align=left;verticalAlign=bottom;strokeWidth=1;entryX=0.25;entryY=0;entryDx=0;entryDy=0;exitX=0.5;exitY=1;exitDx=0;exitDy=0;" parent="1" source="szzaWboSxo6sRydHjCB_-29" target="g109RXZzPeZsBb1zn4cU-131" edge="1">
          <mxGeometry relative="1" as="geometry">
            <mxPoint x="934" y="409" as="sourcePoint" />
            <mxPoint x="951.9499999999998" y="362.922" as="targetPoint" />
          </mxGeometry>
        </mxCell>
        <mxCell id="szzaWboSxo6sRydHjCB_-42" value="0..n" style="endArrow=open;html=1;endSize=12;startArrow=diamondThin;startSize=14;startFill=1;edgeStyle=orthogonalEdgeStyle;align=left;verticalAlign=bottom;strokeWidth=1;entryX=0.25;entryY=1;entryDx=0;entryDy=0;exitX=1;exitY=0.401;exitDx=0;exitDy=0;exitPerimeter=0;" parent="1" source="szzaWboSxo6sRydHjCB_-29" target="szzaWboSxo6sRydHjCB_-34" edge="1">
          <mxGeometry relative="1" as="geometry">
            <mxPoint x="861.9360000000001" y="503.9649999999999" as="sourcePoint" />
            <mxPoint x="948" y="517.5799999999999" as="targetPoint" />
          </mxGeometry>
        </mxCell>
        <mxCell id="szzaWboSxo6sRydHjCB_-44" value="" style="edgeStyle=orthogonalEdgeStyle;fontSize=12;html=1;endArrow=ERmandOne;startArrow=ERmandOne;exitX=1;exitY=0.25;exitDx=0;exitDy=0;entryX=0;entryY=0.315;entryDx=0;entryDy=0;entryPerimeter=0;" parent="1" source="XHzrQX2ppPqFaPMvTT7x-48" target="szzaWboSxo6sRydHjCB_-29" edge="1">
          <mxGeometry width="100" height="100" relative="1" as="geometry">
            <mxPoint x="169" y="290.75" as="sourcePoint" />
            <mxPoint x="490" y="256" as="targetPoint" />
          </mxGeometry>
        </mxCell>
        <mxCell id="szzaWboSxo6sRydHjCB_-54" value="" style="endArrow=open;html=1;endSize=12;startArrow=diamondThin;startSize=14;startFill=1;edgeStyle=orthogonalEdgeStyle;align=left;verticalAlign=bottom;strokeWidth=1;entryX=0;entryY=0.5;entryDx=0;entryDy=0;exitX=1;exitY=0.5;exitDx=0;exitDy=0;" parent="1" source="g109RXZzPeZsBb1zn4cU-143" target="22" edge="1">
          <mxGeometry relative="1" as="geometry">
            <mxPoint x="871" y="511" as="sourcePoint" />
            <mxPoint x="948" y="412.25" as="targetPoint" />
          </mxGeometry>
        </mxCell>
        <mxCell id="lNGriXrNwYLe0H3eNCdz-29" value="&lt;p style=&quot;margin: 0px ; margin-top: 4px ; text-align: center ; text-decoration: underline&quot;&gt;&lt;b&gt;Agent&lt;/b&gt;&lt;/p&gt;&lt;hr&gt;&lt;p style=&quot;margin: 0px ; margin-left: 8px&quot;&gt;id: ID&lt;/p&gt;&lt;p style=&quot;margin: 0px ; margin-left: 8px&quot;&gt;&lt;span&gt;did: DID&lt;/span&gt;&lt;br&gt;&lt;/p&gt;&lt;p style=&quot;margin: 0px ; margin-left: 8px&quot;&gt;credentials: Credential[]&lt;/p&gt;&lt;p style=&quot;margin: 0px ; margin-left: 8px&quot;&gt;verifiedCredentials: VerifiedCredential[]&lt;/p&gt;" style="verticalAlign=top;align=left;overflow=fill;fontSize=12;fontFamily=Helvetica;html=1;strokeColor=#d79b00;shadow=1;fillColor=#CCCC00;" parent="1" vertex="1">
          <mxGeometry x="1805" y="-43" width="237" height="103" as="geometry" />
        </mxCell>
        <mxCell id="lNGriXrNwYLe0H3eNCdz-30" value="&lt;p style=&quot;margin: 0px ; margin-top: 4px ; text-align: center ; text-decoration: underline&quot;&gt;&lt;b&gt;Credential&lt;/b&gt;&lt;/p&gt;&lt;hr&gt;&lt;p style=&quot;margin: 0px ; margin-left: 8px&quot;&gt;id: ID&lt;/p&gt;&lt;p style=&quot;margin: 0px ; margin-left: 8px&quot;&gt;&lt;span&gt;type: string&lt;/span&gt;&lt;br&gt;&lt;/p&gt;&lt;p style=&quot;margin: 0px ; margin-left: 8px&quot;&gt;resourceID: string&lt;/p&gt;&lt;p style=&quot;margin: 0px ; margin-left: 8px&quot;&gt;issuedBy: User&lt;/p&gt;&lt;p style=&quot;margin: 0px ; margin-left: 8px&quot;&gt;&lt;br&gt;&lt;/p&gt;&lt;p style=&quot;margin: 0px ; margin-left: 8px&quot;&gt;&lt;br&gt;&lt;/p&gt;" style="verticalAlign=top;align=left;overflow=fill;fontSize=12;fontFamily=Helvetica;html=1;strokeColor=#d79b00;shadow=1;fillColor=#CCCC00;" parent="1" vertex="1">
          <mxGeometry x="1715" y="124.5" width="190" height="124.5" as="geometry" />
        </mxCell>
        <mxCell id="lNGriXrNwYLe0H3eNCdz-32" value="0..n" style="endArrow=open;html=1;endSize=12;startArrow=diamondThin;startSize=14;startFill=1;edgeStyle=orthogonalEdgeStyle;align=left;verticalAlign=bottom;strokeWidth=1;entryX=0.474;entryY=0.007;entryDx=0;entryDy=0;entryPerimeter=0;exitX=0.321;exitY=1.039;exitDx=0;exitDy=0;exitPerimeter=0;" parent="1" source="lNGriXrNwYLe0H3eNCdz-29" target="lNGriXrNwYLe0H3eNCdz-30" edge="1">
          <mxGeometry x="0.3684" y="3" relative="1" as="geometry">
            <mxPoint x="1559.25" y="6.900000000000091" as="sourcePoint" />
            <mxPoint x="1926" y="101" as="targetPoint" />
            <mxPoint y="1" as="offset" />
          </mxGeometry>
        </mxCell>
        <mxCell id="w0U1WXNURzkzdL44p-FK-29" value="&lt;p style=&quot;margin: 0px ; margin-top: 4px ; text-align: center ; text-decoration: underline&quot;&gt;&lt;b&gt;Verified Credential&lt;/b&gt;&lt;/p&gt;&lt;hr&gt;&lt;p style=&quot;margin: 0px ; margin-left: 8px&quot;&gt;id: ID&lt;/p&gt;&lt;p style=&quot;margin: 0px ; margin-left: 8px&quot;&gt;&lt;span&gt;type: string&lt;/span&gt;&lt;br&gt;&lt;/p&gt;&lt;p style=&quot;margin: 0px ; margin-left: 8px&quot;&gt;resourceID: Int&lt;/p&gt;&lt;p style=&quot;margin: 0px ; margin-left: 8px&quot;&gt;...&lt;/p&gt;" style="verticalAlign=top;align=left;overflow=fill;fontSize=12;fontFamily=Helvetica;html=1;strokeColor=#d79b00;shadow=1;fillColor=#CCCC00;" parent="1" vertex="1">
          <mxGeometry x="1948" y="131" width="202" height="116" as="geometry" />
        </mxCell>
        <mxCell id="w0U1WXNURzkzdL44p-FK-30" value="0..n" style="endArrow=open;html=1;endSize=12;startArrow=diamondThin;startSize=14;startFill=1;edgeStyle=orthogonalEdgeStyle;align=left;verticalAlign=bottom;strokeWidth=1;entryX=0.5;entryY=0;entryDx=0;entryDy=0;exitX=0.75;exitY=1;exitDx=0;exitDy=0;" parent="1" source="lNGriXrNwYLe0H3eNCdz-29" target="w0U1WXNURzkzdL44p-FK-29" edge="1">
          <mxGeometry x="0.3684" y="3" relative="1" as="geometry">
            <mxPoint x="1936" y="83" as="sourcePoint" />
            <mxPoint x="1851.684" y="137.644" as="targetPoint" />
            <mxPoint y="1" as="offset" />
          </mxGeometry>
        </mxCell>
        <mxCell id="w0U1WXNURzkzdL44p-FK-31" value="&lt;p style=&quot;margin: 0px ; margin-top: 4px ; text-align: center ; text-decoration: underline&quot;&gt;&lt;b&gt;AuthorizationPolicy&lt;/b&gt;&lt;/p&gt;&lt;hr&gt;&lt;p style=&quot;margin: 0px ; margin-left: 8px&quot;&gt;id: ID&lt;/p&gt;&lt;p style=&quot;margin: 0px ; margin-left: 8px&quot;&gt;&lt;span&gt;anonymousReadAccess: boolean&lt;/span&gt;&lt;br&gt;&lt;/p&gt;&lt;p style=&quot;margin: 0px ; margin-left: 8px&quot;&gt;credentialRules: CredentialRule[]&lt;/p&gt;&lt;p style=&quot;margin: 0px ; margin-left: 8px&quot;&gt;verifiedCredentialRules: VerifiedCredentialRule[]&lt;/p&gt;&lt;p style=&quot;margin: 0px ; margin-left: 8px&quot;&gt;privilegeRules: PrivilegeRule[]&lt;/p&gt;" style="verticalAlign=top;align=left;overflow=fill;fontSize=12;fontFamily=Helvetica;html=1;strokeColor=#d79b00;shadow=1;fillColor=#FFFFCC;" parent="1" vertex="1">
          <mxGeometry x="1864" y="303" width="271" height="117" as="geometry" />
        </mxCell>
        <mxCell id="w0U1WXNURzkzdL44p-FK-33" value="0..n" style="endArrow=open;html=1;endSize=12;startArrow=diamondThin;startSize=14;startFill=1;edgeStyle=orthogonalEdgeStyle;align=left;verticalAlign=bottom;strokeWidth=1;entryX=0.75;entryY=0;entryDx=0;entryDy=0;exitX=0.205;exitY=1.029;exitDx=0;exitDy=0;exitPerimeter=0;" parent="1" source="w0U1WXNURzkzdL44p-FK-31" target="E1yKPfijJHyPbYJbG4GJ-32" edge="1">
          <mxGeometry relative="1" as="geometry">
            <mxPoint x="1864" y="422" as="sourcePoint" />
            <mxPoint x="1985" y="462.0000000000001" as="targetPoint" />
          </mxGeometry>
        </mxCell>
        <mxCell id="w0U1WXNURzkzdL44p-FK-34" value="&lt;p style=&quot;margin: 0px ; margin-top: 4px ; text-align: center ; text-decoration: underline&quot;&gt;&lt;b&gt;CredentialRule&lt;/b&gt;&lt;/p&gt;&lt;hr&gt;&lt;p style=&quot;margin: 0px ; margin-left: 8px&quot;&gt;id: ID&lt;/p&gt;&lt;p style=&quot;margin: 0px ; margin-left: 8px&quot;&gt;grantedPrivilege: Privilege[]&lt;/p&gt;&lt;p style=&quot;margin: 0px ; margin-left: 8px&quot;&gt;inherited: boolean&lt;/p&gt;&lt;p style=&quot;margin: 0px ; margin-left: 8px&quot;&gt;&lt;span&gt;type: string&lt;/span&gt;&lt;br&gt;&lt;/p&gt;&lt;p style=&quot;margin: 0px ; margin-left: 8px&quot;&gt;resourceID: ID&lt;br&gt;&lt;/p&gt;" style="verticalAlign=top;align=left;overflow=fill;fontSize=12;fontFamily=Helvetica;html=1;strokeColor=#d79b00;shadow=1;fillColor=#FFFFCC;" parent="1" vertex="1">
          <mxGeometry x="1920" y="483.0000000000001" width="166" height="117" as="geometry" />
        </mxCell>
        <mxCell id="w0U1WXNURzkzdL44p-FK-35" value="0..n" style="endArrow=open;html=1;endSize=12;startArrow=diamondThin;startSize=14;startFill=1;edgeStyle=orthogonalEdgeStyle;align=left;verticalAlign=bottom;strokeWidth=1;entryX=0.474;entryY=0.007;entryDx=0;entryDy=0;entryPerimeter=0;exitX=0.544;exitY=0.981;exitDx=0;exitDy=0;exitPerimeter=0;" parent="1" source="w0U1WXNURzkzdL44p-FK-31" target="w0U1WXNURzkzdL44p-FK-34" edge="1">
          <mxGeometry x="0.3684" y="3" relative="1" as="geometry">
            <mxPoint x="1794" y="382" as="sourcePoint" />
            <mxPoint x="1935" y="451.5300000000001" as="targetPoint" />
            <mxPoint y="1" as="offset" />
          </mxGeometry>
        </mxCell>
        <mxCell id="w0U1WXNURzkzdL44p-FK-37" value="&lt;p style=&quot;margin: 0px ; margin-top: 4px ; text-align: center ; text-decoration: underline&quot;&gt;&lt;b&gt;AuthoroizationPrivilege&lt;/b&gt;&lt;/p&gt;&lt;hr&gt;&lt;p style=&quot;margin: 0px ; margin-left: 8px&quot;&gt;&lt;span style=&quot;background-color: initial;&quot;&gt;type: string&lt;/span&gt;&lt;br&gt;&lt;/p&gt;" style="verticalAlign=top;align=left;overflow=fill;fontSize=12;fontFamily=Helvetica;html=1;strokeColor=#d79b00;shadow=1;fillColor=#FFFFCC;" parent="1" vertex="1">
          <mxGeometry x="1674" y="324.5" width="161" height="68" as="geometry" />
        </mxCell>
        <mxCell id="E1yKPfijJHyPbYJbG4GJ-29" value="&lt;p style=&quot;margin: 0px ; margin-top: 4px ; text-align: center ; text-decoration: underline&quot;&gt;&lt;b&gt;Communication&lt;/b&gt;&lt;/p&gt;&lt;hr&gt;&lt;p style=&quot;margin: 0px ; margin-left: 8px&quot;&gt;id: ID&lt;/p&gt;&lt;p style=&quot;margin: 0px ; margin-left: 8px&quot;&gt;&lt;span&gt;updates: Room&lt;/span&gt;&lt;/p&gt;&lt;p style=&quot;margin: 0px ; margin-left: 8px&quot;&gt;discussions: Discussion[]&lt;/p&gt;" style="verticalAlign=top;align=left;overflow=fill;fontSize=12;fontFamily=Helvetica;html=1;strokeColor=#82b366;shadow=1;fillColor=#CCFFCC;" parent="1" vertex="1">
          <mxGeometry x="710" y="451" width="175" height="92" as="geometry" />
        </mxCell>
        <mxCell id="E1yKPfijJHyPbYJbG4GJ-30" value="&lt;p style=&quot;margin: 0px ; margin-top: 4px ; text-align: center ; text-decoration: underline&quot;&gt;&lt;b&gt;Discussion&lt;/b&gt;&lt;/p&gt;&lt;hr&gt;&lt;p style=&quot;margin: 0px ; margin-left: 8px&quot;&gt;id: ID&lt;/p&gt;&lt;p style=&quot;margin: 0px ; margin-left: 8px&quot;&gt;&lt;span&gt;comments: Room&lt;/span&gt;&lt;/p&gt;&lt;p style=&quot;margin: 0px ; margin-left: 8px&quot;&gt;&lt;span style=&quot;background-color: initial;&quot;&gt;category: string&lt;/span&gt;&lt;/p&gt;&lt;p style=&quot;margin: 0px ; margin-left: 8px&quot;&gt;profile: Profile&lt;/p&gt;&lt;p style=&quot;margin: 0px ; margin-left: 8px&quot;&gt;createdBy: User&lt;/p&gt;&lt;p style=&quot;margin: 0px ; margin-left: 8px&quot;&gt;createdAt: Date&lt;/p&gt;" style="verticalAlign=top;align=left;overflow=fill;fontSize=12;fontFamily=Helvetica;html=1;strokeColor=#82b366;shadow=1;fillColor=#CCFFCC;" parent="1" vertex="1">
          <mxGeometry x="641" y="623" width="156" height="131" as="geometry" />
        </mxCell>
        <mxCell id="E1yKPfijJHyPbYJbG4GJ-31" value="&lt;p style=&quot;margin: 0px ; margin-top: 4px ; text-align: center ; text-decoration: underline&quot;&gt;&lt;b&gt;PrivilegeRule&lt;/b&gt;&lt;/p&gt;&lt;hr&gt;&lt;p style=&quot;margin: 0px ; margin-left: 8px&quot;&gt;id: ID&lt;/p&gt;&lt;p style=&quot;margin: 0px ; margin-left: 8px&quot;&gt;grantedPrivilege: Privilege[]&lt;br&gt;&lt;/p&gt;&lt;p style=&quot;margin: 0px ; margin-left: 8px&quot;&gt;inherited: boolean&lt;/p&gt;&lt;p style=&quot;margin: 0px ; margin-left: 8px&quot;&gt;privilege: Privilege&lt;/p&gt;" style="verticalAlign=top;align=left;overflow=fill;fontSize=12;fontFamily=Helvetica;html=1;strokeColor=#d79b00;shadow=1;fillColor=#FFFFCC;" parent="1" vertex="1">
          <mxGeometry x="2109" y="486.0000000000001" width="177" height="114" as="geometry" />
        </mxCell>
        <mxCell id="E1yKPfijJHyPbYJbG4GJ-32" value="&lt;p style=&quot;margin: 0px ; margin-top: 4px ; text-align: center ; text-decoration: underline&quot;&gt;&lt;b&gt;VerifiedCredentialRule&lt;/b&gt;&lt;/p&gt;&lt;hr&gt;&lt;p style=&quot;margin: 0px ; margin-left: 8px&quot;&gt;id: ID&lt;/p&gt;&lt;p style=&quot;margin: 0px ; margin-left: 8px&quot;&gt;grantedPrivilege: Privilege[]&lt;/p&gt;&lt;p style=&quot;margin: 0px ; margin-left: 8px&quot;&gt;inherited: boolean&lt;/p&gt;&lt;p style=&quot;margin: 0px ; margin-left: 8px&quot;&gt;&lt;span&gt;type: string&lt;/span&gt;&lt;br&gt;&lt;/p&gt;&lt;p style=&quot;margin: 0px ; margin-left: 8px&quot;&gt;resourceID: ID&lt;br&gt;&lt;/p&gt;" style="verticalAlign=top;align=left;overflow=fill;fontSize=12;fontFamily=Helvetica;html=1;strokeColor=#d79b00;shadow=1;fillColor=#FFFFCC;" parent="1" vertex="1">
          <mxGeometry x="1732" y="483.0000000000001" width="166" height="117" as="geometry" />
        </mxCell>
        <mxCell id="E1yKPfijJHyPbYJbG4GJ-33" value="0..n" style="endArrow=open;html=1;endSize=12;startArrow=diamondThin;startSize=14;startFill=1;edgeStyle=orthogonalEdgeStyle;align=left;verticalAlign=bottom;strokeWidth=1;entryX=0.345;entryY=0.026;entryDx=0;entryDy=0;exitX=0.924;exitY=0.981;exitDx=0;exitDy=0;entryPerimeter=0;exitPerimeter=0;" parent="1" source="w0U1WXNURzkzdL44p-FK-31" target="E1yKPfijJHyPbYJbG4GJ-31" edge="1">
          <mxGeometry x="0.3684" y="3" relative="1" as="geometry">
            <mxPoint x="1987.25" y="415" as="sourcePoint" />
            <mxPoint x="1995" y="472.0000000000001" as="targetPoint" />
            <mxPoint y="1" as="offset" />
          </mxGeometry>
        </mxCell>
        <mxCell id="E1yKPfijJHyPbYJbG4GJ-35" value="&lt;p style=&quot;margin: 0px ; margin-top: 4px ; text-align: center ; text-decoration: underline&quot;&gt;&lt;b&gt;Room&lt;/b&gt;&lt;/p&gt;&lt;hr&gt;&lt;p style=&quot;margin: 0px ; margin-left: 8px&quot;&gt;id: ID&lt;/p&gt;&lt;p style=&quot;margin: 0px ; margin-left: 8px&quot;&gt;&lt;span&gt;messages: Message[]&lt;/span&gt;&lt;/p&gt;" style="verticalAlign=top;align=left;overflow=fill;fontSize=12;fontFamily=Helvetica;html=1;strokeColor=#666666;shadow=1;fillColor=#d1ffca;fontColor=#333333;" parent="1" vertex="1">
          <mxGeometry x="727" y="786" width="158" height="86" as="geometry" />
        </mxCell>
        <mxCell id="E1yKPfijJHyPbYJbG4GJ-40" value="0..n" style="endArrow=open;html=1;endSize=12;startArrow=diamondThin;startSize=14;startFill=1;edgeStyle=orthogonalEdgeStyle;align=left;verticalAlign=bottom;strokeWidth=1;entryX=0.5;entryY=0;entryDx=0;entryDy=0;exitX=0.75;exitY=1;exitDx=0;exitDy=0;" parent="1" source="l3QMB8aYCtV3EK-DeP1m-29" target="jUQgdawCYTuHx77WMf0Y-29" edge="1">
          <mxGeometry relative="1" as="geometry">
            <mxPoint x="-195" y="504" as="sourcePoint" />
            <mxPoint x="-407.5" y="-340" as="targetPoint" />
          </mxGeometry>
        </mxCell>
        <mxCell id="E1yKPfijJHyPbYJbG4GJ-41" value="&lt;p style=&quot;margin: 0px ; margin-top: 4px ; text-align: center ; text-decoration: underline&quot;&gt;&lt;b&gt;Visual&lt;/b&gt;&lt;/p&gt;&lt;hr&gt;&lt;p style=&quot;margin: 0px ; margin-left: 8px&quot;&gt;id: ID&lt;/p&gt;&lt;p style=&quot;margin: 0px ; margin-left: 8px&quot;&gt;type: VisualType&lt;/p&gt;&lt;p style=&quot;margin: 0px ; margin-left: 8px&quot;&gt;uri: string&lt;/p&gt;&lt;p style=&quot;margin: 0px ; margin-left: 8px&quot;&gt;alternateText: string&lt;/p&gt;" style="verticalAlign=top;align=left;overflow=fill;fontSize=12;fontFamily=Helvetica;html=1;strokeColor=#666666;shadow=1;fillColor=#f5f5f5;fontColor=#333333;" parent="1" vertex="1">
          <mxGeometry x="1340" y="686" width="136" height="100" as="geometry" />
        </mxCell>
        <mxCell id="FQ2XHo6aB85YoyOK63lh-30" style="edgeStyle=orthogonalEdgeStyle;rounded=0;orthogonalLoop=1;jettySize=auto;html=1;exitX=0.5;exitY=1;exitDx=0;exitDy=0;startArrow=block;startFill=0;endArrow=none;endFill=0;" parent="1" source="FQ2XHo6aB85YoyOK63lh-29" target="22" edge="1">
          <mxGeometry relative="1" as="geometry" />
        </mxCell>
        <mxCell id="FQ2XHo6aB85YoyOK63lh-31" style="edgeStyle=orthogonalEdgeStyle;rounded=0;orthogonalLoop=1;jettySize=auto;html=1;exitX=0.5;exitY=1;exitDx=0;exitDy=0;startArrow=block;startFill=0;endArrow=none;endFill=0;" parent="1" source="FQ2XHo6aB85YoyOK63lh-29" target="g109RXZzPeZsBb1zn4cU-143" edge="1">
          <mxGeometry relative="1" as="geometry" />
        </mxCell>
        <mxCell id="FQ2XHo6aB85YoyOK63lh-29" value="&lt;p style=&quot;margin: 0px ; margin-top: 4px ; text-align: center ; text-decoration: underline&quot;&gt;&lt;b&gt;Contributor&lt;/b&gt;&lt;/p&gt;&lt;hr&gt;&lt;p style=&quot;margin: 0px ; margin-left: 8px&quot;&gt;id: ID&lt;/p&gt;&lt;p style=&quot;margin: 0px ; margin-left: 8px&quot;&gt;nameID: String&lt;/p&gt;&lt;p style=&quot;margin: 0px ; margin-left: 8px&quot;&gt;&lt;span style=&quot;background-color: initial;&quot;&gt;profile: Profile&lt;/span&gt;&lt;/p&gt;&lt;p style=&quot;margin: 0px ; margin-left: 8px&quot;&gt;&lt;span style=&quot;background-color: initial;&quot;&gt;agent: Agent&lt;/span&gt;&lt;br&gt;&lt;/p&gt;" style="verticalAlign=top;align=left;overflow=fill;fontSize=12;fontFamily=Helvetica;html=1;strokeColor=#003366;shadow=1;fontColor=#003366;fillColor=#99FFCC;" parent="1" vertex="1">
          <mxGeometry x="1227" y="101" width="167" height="110" as="geometry" />
        </mxCell>
        <mxCell id="FQ2XHo6aB85YoyOK63lh-32" value="" style="endArrow=open;html=1;endSize=12;startArrow=diamondThin;startSize=14;startFill=1;edgeStyle=orthogonalEdgeStyle;align=left;verticalAlign=bottom;strokeWidth=1;exitX=0.75;exitY=1;exitDx=0;exitDy=0;entryX=0.5;entryY=1;entryDx=0;entryDy=0;" parent="1" source="g109RXZzPeZsBb1zn4cU-131" target="22" edge="1">
          <mxGeometry relative="1" as="geometry">
            <mxPoint x="931" y="540" as="sourcePoint" />
            <mxPoint x="1288" y="455" as="targetPoint" />
            <Array as="points">
              <mxPoint x="934" y="483" />
              <mxPoint x="1311" y="483" />
            </Array>
          </mxGeometry>
        </mxCell>
        <mxCell id="FQ2XHo6aB85YoyOK63lh-33" value="" style="endArrow=open;html=1;endSize=12;startArrow=diamondThin;startSize=14;startFill=1;edgeStyle=orthogonalEdgeStyle;align=left;verticalAlign=bottom;strokeWidth=1;entryX=1;entryY=0.5;entryDx=0;entryDy=0;exitX=0;exitY=0.25;exitDx=0;exitDy=0;" parent="1" source="g109RXZzPeZsBb1zn4cU-143" target="g109RXZzPeZsBb1zn4cU-131" edge="1">
          <mxGeometry relative="1" as="geometry">
            <mxPoint x="1236" y="412.5" as="sourcePoint" />
            <mxPoint x="1180" y="413" as="targetPoint" />
          </mxGeometry>
        </mxCell>
        <mxCell id="FQ2XHo6aB85YoyOK63lh-34" value="&lt;p style=&quot;margin: 0px ; margin-top: 4px ; text-align: center ; text-decoration: underline&quot;&gt;&lt;b&gt;Location&lt;/b&gt;&lt;/p&gt;&lt;hr&gt;&lt;p style=&quot;margin: 0px ; margin-left: 8px&quot;&gt;id: ID&lt;/p&gt;&lt;p style=&quot;margin: 0px ; margin-left: 8px&quot;&gt;country: string&lt;/p&gt;&lt;p style=&quot;margin: 0px ; margin-left: 8px&quot;&gt;city: string&lt;/p&gt;" style="verticalAlign=top;align=left;overflow=fill;fontSize=12;fontFamily=Helvetica;html=1;strokeColor=#666666;shadow=1;fillColor=#f5f5f5;fontColor=#333333;" parent="1" vertex="1">
          <mxGeometry x="1129.5" y="922" width="142" height="94" as="geometry" />
        </mxCell>
        <mxCell id="FQ2XHo6aB85YoyOK63lh-37" value="" style="edgeStyle=orthogonalEdgeStyle;fontSize=12;html=1;endArrow=ERmandOne;startArrow=ERmandOne;exitX=0.25;exitY=1;exitDx=0;exitDy=0;entryX=0.5;entryY=0;entryDx=0;entryDy=0;" parent="1" source="szzaWboSxo6sRydHjCB_-29" target="E1yKPfijJHyPbYJbG4GJ-29" edge="1">
          <mxGeometry width="100" height="100" relative="1" as="geometry">
            <mxPoint x="744.75" y="686" as="sourcePoint" />
            <mxPoint x="732.5" y="743" as="targetPoint" />
          </mxGeometry>
        </mxCell>
        <mxCell id="fy6HlwIQvY-UTlpl7jCo-104" value="&lt;p style=&quot;margin: 0px ; margin-top: 4px ; text-align: center ; text-decoration: underline&quot;&gt;&lt;b&gt;Lifecycle&lt;/b&gt;&lt;/p&gt;&lt;hr&gt;&lt;p style=&quot;margin: 0px ; margin-left: 8px&quot;&gt;id: ID&lt;/p&gt;&lt;p style=&quot;margin: 0px ; margin-left: 8px&quot;&gt;machineDef: JSON&lt;/p&gt;&lt;p style=&quot;margin: 0px ; margin-left: 8px&quot;&gt;machineState: JSON&lt;/p&gt;&lt;p style=&quot;margin: 0px ; margin-left: 8px&quot;&gt;nextEvents: string[]&lt;/p&gt;" style="verticalAlign=top;align=left;overflow=fill;fontSize=12;fontFamily=Helvetica;html=1;strokeColor=#666666;shadow=1;fillColor=#FFE599;fontColor=#333333;" parent="1" vertex="1">
          <mxGeometry x="1735" y="649" width="160" height="99" as="geometry" />
        </mxCell>
        <mxCell id="XHzrQX2ppPqFaPMvTT7x-39" value="&lt;p style=&quot;margin: 0px ; margin-top: 4px ; text-align: center ; text-decoration: underline&quot;&gt;&lt;b&gt;Collaboration&lt;/b&gt;&lt;/p&gt;&lt;hr&gt;&lt;p style=&quot;margin: 0px ; margin-left: 8px&quot;&gt;id: ID&lt;/p&gt;&lt;p style=&quot;margin: 0px ; margin-left: 8px&quot;&gt;innovationFlow: InnovationFlow&lt;br&gt;&lt;/p&gt;&lt;p style=&quot;margin: 0px ; margin-left: 8px&quot;&gt;timeline: Timeline&lt;br&gt;&lt;/p&gt;&lt;p style=&quot;margin: 0px ; margin-left: 8px&quot;&gt;callOuts: CallOut[]&lt;/p&gt;&lt;p style=&quot;margin: 0px ; margin-left: 8px&quot;&gt;tagsetTemplateSet: TagsetTemplateSet&lt;/p&gt;" style="verticalAlign=top;align=left;overflow=fill;fontSize=12;fontFamily=Helvetica;html=1;strokeColor=default;shadow=1;fillColor=#FFFFCC;opacity=60;" parent="1" vertex="1">
          <mxGeometry x="-344" y="8.5" width="237" height="162.5" as="geometry" />
        </mxCell>
        <mxCell id="XHzrQX2ppPqFaPMvTT7x-48" value="&lt;p style=&quot;margin: 0px ; margin-top: 4px ; text-align: center ; text-decoration: underline&quot;&gt;&lt;strong&gt;Space&lt;/strong&gt;&lt;/p&gt;&lt;hr&gt;&lt;p style=&quot;margin: 0px ; margin-left: 8px&quot;&gt;id: ID&lt;/p&gt;&lt;p style=&quot;margin: 0px ; margin-left: 8px&quot;&gt;nameID: string&lt;/p&gt;&lt;p style=&quot;margin: 0px 0px 0px 8px;&quot;&gt;profile: Profile&lt;/p&gt;&lt;p style=&quot;margin: 0px ; margin-left: 8px&quot;&gt;context: Context&lt;/p&gt;&lt;p style=&quot;margin: 0px ; margin-left: 8px&quot;&gt;community: Community&lt;/p&gt;&lt;p style=&quot;margin: 0px ; margin-left: 8px&quot;&gt;&lt;span style=&quot;background-color: initial;&quot;&gt;collaboration: Collaboration&lt;/span&gt;&lt;br&gt;&lt;/p&gt;&lt;p style=&quot;margin: 0px 0px 0px 8px&quot;&gt;&lt;span&gt;agent: Agent&lt;/span&gt;&lt;br&gt;&lt;/p&gt;&lt;p style=&quot;margin: 0px 0px 0px 8px&quot;&gt;&lt;span&gt;storage: StorageAggregator&lt;/span&gt;&lt;/p&gt;&lt;p style=&quot;margin: 0px 0px 0px 8px&quot;&gt;&lt;span&gt;account: Account&lt;/span&gt;&lt;/p&gt;&lt;p style=&quot;margin: 0px 0px 0px 8px&quot;&gt;&lt;span&gt;subspaces: Space[]&lt;/span&gt;&lt;/p&gt;&lt;p style=&quot;margin: 0px 0px 0px 8px&quot;&gt;&lt;br&gt;&lt;/p&gt;&lt;div&gt;&lt;span&gt;&lt;br&gt;&lt;/span&gt;&lt;/div&gt;" style="verticalAlign=top;align=left;overflow=fill;fontSize=12;fontFamily=Helvetica;html=1;strokeColor=#003366;shadow=1;fontColor=#003366;fillColor=#3399FF;" parent="1" vertex="1">
          <mxGeometry x="153" y="8.5" width="324.5" height="247" as="geometry" />
        </mxCell>
        <mxCell id="XHzrQX2ppPqFaPMvTT7x-57" value="" style="edgeStyle=orthogonalEdgeStyle;fontSize=12;html=1;endArrow=ERmandOne;startArrow=ERmandOne;exitX=1;exitY=0.25;exitDx=0;exitDy=0;entryX=0;entryY=0.25;entryDx=0;entryDy=0;" parent="1" source="XHzrQX2ppPqFaPMvTT7x-39" target="XHzrQX2ppPqFaPMvTT7x-48" edge="1">
          <mxGeometry width="100" height="100" relative="1" as="geometry">
            <mxPoint x="145.5" y="-78.875" as="sourcePoint" />
            <mxPoint x="250" y="462" as="targetPoint" />
          </mxGeometry>
        </mxCell>
        <mxCell id="XHzrQX2ppPqFaPMvTT7x-68" value="0..n" style="endArrow=open;html=1;endSize=12;startArrow=diamondThin;startSize=14;startFill=1;edgeStyle=orthogonalEdgeStyle;align=left;verticalAlign=bottom;strokeWidth=1;exitX=0.5;exitY=1;exitDx=0;exitDy=0;entryX=0.5;entryY=0;entryDx=0;entryDy=0;" parent="1" source="E1yKPfijJHyPbYJbG4GJ-29" target="E1yKPfijJHyPbYJbG4GJ-30" edge="1">
          <mxGeometry relative="1" as="geometry">
            <mxPoint x="213.5" y="544" as="sourcePoint" />
            <mxPoint x="320" y="617" as="targetPoint" />
          </mxGeometry>
        </mxCell>
        <mxCell id="l3QMB8aYCtV3EK-DeP1m-32" value="0..n" style="endArrow=open;html=1;endSize=12;startArrow=diamondThin;startSize=14;startFill=1;edgeStyle=orthogonalEdgeStyle;align=left;verticalAlign=bottom;strokeWidth=1;entryX=0.5;entryY=0;entryDx=0;entryDy=0;exitX=0.5;exitY=1;exitDx=0;exitDy=0;" parent="1" source="XHzrQX2ppPqFaPMvTT7x-39" target="l3QMB8aYCtV3EK-DeP1m-29" edge="1">
          <mxGeometry x="0.1569" y="-5" relative="1" as="geometry">
            <mxPoint x="-282.5" y="721" as="sourcePoint" />
            <mxPoint x="-345" y="808" as="targetPoint" />
            <mxPoint as="offset" />
          </mxGeometry>
        </mxCell>
        <mxCell id="g8zVUVb651xDIeDNfFYw-34" value="&lt;p style=&quot;margin: 0px ; margin-top: 4px ; text-align: center ; text-decoration: underline&quot;&gt;&lt;b&gt;Form&lt;/b&gt;&lt;/p&gt;&lt;hr&gt;&lt;p style=&quot;margin: 0px ; margin-left: 8px&quot;&gt;id: ID&lt;/p&gt;&lt;p style=&quot;margin: 0px ; margin-left: 8px&quot;&gt;description: string&lt;/p&gt;&lt;p style=&quot;margin: 0px ; margin-left: 8px&quot;&gt;questions: QuestionDef&lt;/p&gt;&lt;p style=&quot;margin: 0px ; margin-left: 8px&quot;&gt;&lt;br&gt;&lt;/p&gt;" style="verticalAlign=top;align=left;overflow=fill;fontSize=12;fontFamily=Helvetica;html=1;strokeColor=#666666;shadow=1;fillColor=#f5f5f5;fontColor=#333333;" parent="1" vertex="1">
          <mxGeometry x="908.3800000000001" y="818" width="144.75" height="102" as="geometry" />
        </mxCell>
        <mxCell id="g8zVUVb651xDIeDNfFYw-35" value="&lt;p style=&quot;margin: 0px ; margin-top: 4px ; text-align: center ; text-decoration: underline&quot;&gt;&lt;b&gt;VisualType&lt;/b&gt;&lt;/p&gt;&lt;hr&gt;&lt;p style=&quot;margin: 0px ; margin-left: 8px&quot;&gt;id: ID&lt;/p&gt;&lt;p style=&quot;margin: 0px ; margin-left: 8px&quot;&gt;name: string&lt;/p&gt;&lt;p style=&quot;margin: 0px ; margin-left: 8px&quot;&gt;minWidth: int&lt;/p&gt;&lt;p style=&quot;margin: 0px ; margin-left: 8px&quot;&gt;maxWidth: int&lt;/p&gt;&lt;p style=&quot;margin: 0px ; margin-left: 8px&quot;&gt;minHeight: int&lt;/p&gt;&lt;p style=&quot;margin: 0px ; margin-left: 8px&quot;&gt;maxHeight: int&lt;/p&gt;&lt;p style=&quot;margin: 0px ; margin-left: 8px&quot;&gt;aspectRatio: int&lt;/p&gt;" style="verticalAlign=top;align=left;overflow=fill;fontSize=12;fontFamily=Helvetica;html=1;strokeColor=#666666;shadow=1;fillColor=#f5f5f5;fontColor=#333333;" parent="1" vertex="1">
          <mxGeometry x="1340" y="839" width="144" height="143" as="geometry" />
        </mxCell>
        <mxCell id="g8zVUVb651xDIeDNfFYw-41" value="&lt;p style=&quot;margin: 0px ; margin-top: 4px ; text-align: center ; text-decoration: underline&quot;&gt;&lt;b&gt;Configuration&lt;/b&gt;&lt;/p&gt;&lt;hr&gt;&lt;p style=&quot;margin: 0px ; margin-left: 8px&quot;&gt;id: ID&lt;/p&gt;&lt;p style=&quot;margin: 0px ; margin-left: 8px&quot;&gt;featureFlags: boolean&lt;br&gt;&lt;/p&gt;" style="verticalAlign=top;align=left;overflow=fill;fontSize=12;fontFamily=Helvetica;html=1;strokeColor=#0e8088;shadow=1;fillColor=#b0e3e6;opacity=60;" parent="1" vertex="1">
          <mxGeometry x="-760" y="-374" width="186" height="94" as="geometry" />
        </mxCell>
        <mxCell id="g8zVUVb651xDIeDNfFYw-45" value="&lt;p style=&quot;margin: 0px ; margin-top: 4px ; text-align: center ; text-decoration: underline&quot;&gt;&lt;b&gt;Platform&lt;/b&gt;&lt;/p&gt;&lt;hr&gt;&lt;p style=&quot;margin: 0px ; margin-left: 8px&quot;&gt;id: ID&lt;/p&gt;&lt;p style=&quot;margin: 0px ; margin-left: 8px&quot;&gt;communication: Communication&lt;/p&gt;&lt;p style=&quot;margin: 0px ; margin-left: 8px&quot;&gt;hubs: InnovationHub[]&lt;/p&gt;&lt;p style=&quot;margin: 0px ; margin-left: 8px&quot;&gt;storage: StorageBucket&lt;/p&gt;" style="verticalAlign=top;align=left;overflow=fill;fontSize=12;fontFamily=Helvetica;html=1;strokeColor=#0e8088;shadow=1;fillColor=#b0e3e6;opacity=60;" parent="1" vertex="1">
          <mxGeometry x="-631" y="-556" width="239" height="111" as="geometry" />
        </mxCell>
        <mxCell id="g8zVUVb651xDIeDNfFYw-46" value="&lt;p style=&quot;margin: 0px ; margin-top: 4px ; text-align: center ; text-decoration: underline&quot;&gt;&lt;b&gt;Calendar&lt;/b&gt;&lt;/p&gt;&lt;hr&gt;&lt;p style=&quot;margin: 0px ; margin-left: 8px&quot;&gt;id: ID&lt;/p&gt;&lt;p style=&quot;margin: 0px ; margin-left: 8px&quot;&gt;&lt;span&gt;nameID: string&lt;/span&gt;&lt;br&gt;&lt;/p&gt;&lt;p style=&quot;margin: 0px ; margin-left: 8px&quot;&gt;events: CalendarEvent[]&lt;/p&gt;" style="verticalAlign=top;align=left;overflow=fill;fontSize=12;fontFamily=Helvetica;html=1;strokeColor=#d79b00;shadow=1;fillColor=#FFFFCC;" parent="1" vertex="1">
          <mxGeometry x="-46" y="865" width="179" height="99" as="geometry" />
        </mxCell>
        <mxCell id="g8zVUVb651xDIeDNfFYw-48" value="&lt;p style=&quot;margin: 0px ; margin-top: 4px ; text-align: center ; text-decoration: underline&quot;&gt;&lt;b&gt;CalendarEvent&lt;/b&gt;&lt;/p&gt;&lt;hr&gt;&lt;p style=&quot;margin: 0px ; margin-left: 8px&quot;&gt;id: ID&lt;/p&gt;&lt;p style=&quot;margin: 0px ; margin-left: 8px&quot;&gt;nameID: string&lt;/p&gt;&lt;p style=&quot;margin: 0px ; margin-left: 8px&quot;&gt;profile: Profile&lt;/p&gt;&lt;p style=&quot;margin: 0px ; margin-left: 8px&quot;&gt;startDate: Date&lt;/p&gt;&lt;p style=&quot;margin: 0px ; margin-left: 8px&quot;&gt;durationDays: integer&lt;/p&gt;&lt;p style=&quot;margin: 0px ; margin-left: 8px&quot;&gt;durationMinutes: integer&lt;/p&gt;&lt;p style=&quot;margin: 0px ; margin-left: 8px&quot;&gt;multipleDays: boolean&lt;/p&gt;" style="verticalAlign=top;align=left;overflow=fill;fontSize=12;fontFamily=Helvetica;html=1;strokeColor=#d79b00;shadow=1;fillColor=#FFFFCC;" parent="1" vertex="1">
          <mxGeometry x="181" y="838" width="180" height="153" as="geometry" />
        </mxCell>
        <mxCell id="g8zVUVb651xDIeDNfFYw-49" value="0..n" style="endArrow=open;html=1;endSize=12;startArrow=diamondThin;startSize=14;startFill=1;edgeStyle=orthogonalEdgeStyle;align=left;verticalAlign=bottom;strokeWidth=1;entryX=0;entryY=0.5;entryDx=0;entryDy=0;exitX=1;exitY=0.5;exitDx=0;exitDy=0;" parent="1" source="g8zVUVb651xDIeDNfFYw-46" target="g8zVUVb651xDIeDNfFYw-48" edge="1">
          <mxGeometry x="0.3684" y="3" relative="1" as="geometry">
            <mxPoint x="4" y="976" as="sourcePoint" />
            <mxPoint x="145" y="1045.5300000000002" as="targetPoint" />
            <mxPoint y="1" as="offset" />
          </mxGeometry>
        </mxCell>
        <mxCell id="g8zVUVb651xDIeDNfFYw-57" value="&lt;p style=&quot;margin: 0px ; margin-top: 4px ; text-align: center ; text-decoration: underline&quot;&gt;&lt;b&gt;Timeline&lt;/b&gt;&lt;/p&gt;&lt;hr&gt;&lt;p style=&quot;margin: 0px ; margin-left: 8px&quot;&gt;id: ID&lt;/p&gt;&lt;p style=&quot;margin: 0px ; margin-left: 8px&quot;&gt;&lt;span&gt;calendar: Calendar&lt;/span&gt;&lt;/p&gt;&lt;p style=&quot;margin: 0px ; margin-left: 8px&quot;&gt;&lt;br&gt;&lt;/p&gt;" style="verticalAlign=top;align=left;overflow=fill;fontSize=12;fontFamily=Helvetica;html=1;strokeColor=#d79b00;shadow=1;fillColor=#FFFFCC;" parent="1" vertex="1">
          <mxGeometry x="-71" y="536" width="161" height="94" as="geometry" />
        </mxCell>
        <mxCell id="g8zVUVb651xDIeDNfFYw-58" value="0..n" style="endArrow=open;html=1;endSize=12;startArrow=diamondThin;startSize=14;startFill=1;edgeStyle=orthogonalEdgeStyle;align=left;verticalAlign=bottom;strokeWidth=1;entryX=0.5;entryY=0;entryDx=0;entryDy=0;exitX=0.544;exitY=0.981;exitDx=0;exitDy=0;exitPerimeter=0;" parent="1" source="g8zVUVb651xDIeDNfFYw-57" target="g8zVUVb651xDIeDNfFYw-46" edge="1">
          <mxGeometry x="0.3684" y="3" relative="1" as="geometry">
            <mxPoint x="151" y="828" as="sourcePoint" />
            <mxPoint x="376.5399999999995" y="929.903" as="targetPoint" />
            <mxPoint y="1" as="offset" />
          </mxGeometry>
        </mxCell>
        <mxCell id="g8zVUVb651xDIeDNfFYw-60" value="" style="edgeStyle=orthogonalEdgeStyle;fontSize=12;html=1;endArrow=ERmandOne;startArrow=ERmandOne;exitX=0.5;exitY=1;exitDx=0;exitDy=0;entryX=0.5;entryY=0;entryDx=0;entryDy=0;" parent="1" source="E1yKPfijJHyPbYJbG4GJ-41" target="g8zVUVb651xDIeDNfFYw-35" edge="1">
          <mxGeometry width="100" height="100" relative="1" as="geometry">
            <mxPoint x="786.5" y="560" as="sourcePoint" />
            <mxPoint x="717.75" y="606" as="targetPoint" />
          </mxGeometry>
        </mxCell>
        <mxCell id="uvyQVKtZNlK0fUVbQQDJ-32" value="" style="edgeStyle=orthogonalEdgeStyle;fontSize=12;html=1;endArrow=ERmandOne;startArrow=ERmandOne;exitX=0.5;exitY=0;exitDx=0;exitDy=0;entryX=0.25;entryY=1;entryDx=0;entryDy=0;" parent="1" source="g8zVUVb651xDIeDNfFYw-41" target="g8zVUVb651xDIeDNfFYw-45" edge="1">
          <mxGeometry width="100" height="100" relative="1" as="geometry">
            <mxPoint x="-2485.5" y="540" as="sourcePoint" />
            <mxPoint x="-2587.6639999999998" y="194.44000000000005" as="targetPoint" />
          </mxGeometry>
        </mxCell>
        <mxCell id="uvyQVKtZNlK0fUVbQQDJ-33" value="&lt;p style=&quot;margin: 0px ; margin-top: 4px ; text-align: center ; text-decoration: underline&quot;&gt;&lt;b&gt;InnovationPack&lt;/b&gt;&lt;/p&gt;&lt;hr&gt;&lt;p style=&quot;margin: 0px ; margin-left: 8px&quot;&gt;id: ID&lt;/p&gt;&lt;p style=&quot;margin: 0px ; margin-left: 8px&quot;&gt;nameID: String&lt;/p&gt;&lt;p style=&quot;margin: 0px ; margin-left: 8px&quot;&gt;profile: Profile&lt;/p&gt;&lt;p style=&quot;margin: 0px ; margin-left: 8px&quot;&gt;provider: Organization&lt;/p&gt;&lt;p style=&quot;margin: 0px ; margin-left: 8px&quot;&gt;templatesSet: TemplatesSet&lt;/p&gt;" style="verticalAlign=top;align=left;overflow=fill;fontSize=12;fontFamily=Helvetica;html=1;strokeColor=#0e8088;shadow=1;fillColor=#b0e3e6;opacity=60;" parent="1" vertex="1">
          <mxGeometry x="7" y="-197" width="220" height="135" as="geometry" />
        </mxCell>
        <mxCell id="uvyQVKtZNlK0fUVbQQDJ-34" value="&lt;p style=&quot;margin: 0px ; margin-top: 4px ; text-align: center ; text-decoration: underline&quot;&gt;&lt;b&gt;InnovationLibrary&lt;/b&gt;&lt;/p&gt;&lt;hr&gt;&lt;p style=&quot;margin: 0px ; margin-left: 8px&quot;&gt;id: ID&lt;/p&gt;" style="verticalAlign=top;align=left;overflow=fill;fontSize=12;fontFamily=Helvetica;html=1;strokeColor=#0e8088;shadow=1;fillColor=#b0e3e6;opacity=60;" parent="1" vertex="1">
          <mxGeometry x="-510" y="-376" width="226" height="94" as="geometry" />
        </mxCell>
        <mxCell id="uvyQVKtZNlK0fUVbQQDJ-35" value="" style="edgeStyle=orthogonalEdgeStyle;fontSize=12;html=1;endArrow=ERmandOne;startArrow=ERmandOne;exitX=0.5;exitY=0;exitDx=0;exitDy=0;entryX=0.5;entryY=1;entryDx=0;entryDy=0;" parent="1" source="uvyQVKtZNlK0fUVbQQDJ-34" target="g8zVUVb651xDIeDNfFYw-45" edge="1">
          <mxGeometry width="100" height="100" relative="1" as="geometry">
            <mxPoint x="-1845.5" y="-320" as="sourcePoint" />
            <mxPoint x="-1838.5" y="-377.9999999999998" as="targetPoint" />
          </mxGeometry>
        </mxCell>
        <mxCell id="uvyQVKtZNlK0fUVbQQDJ-36" value="0..n" style="endArrow=open;html=1;endSize=12;startArrow=diamondThin;startSize=14;startFill=1;edgeStyle=orthogonalEdgeStyle;align=left;verticalAlign=bottom;strokeWidth=1;entryX=0.5;entryY=0;entryDx=0;entryDy=0;fillColor=#b0e3e6;strokeColor=#0e8088;opacity=60;exitX=0.25;exitY=1;exitDx=0;exitDy=0;" parent="1" source="0po9gxngi8_i5DU3Apx4-30" target="uvyQVKtZNlK0fUVbQQDJ-33" edge="1">
          <mxGeometry relative="1" as="geometry">
            <mxPoint x="24" y="-272.53" as="sourcePoint" />
            <mxPoint x="120" y="-385.53" as="targetPoint" />
          </mxGeometry>
        </mxCell>
        <mxCell id="uvyQVKtZNlK0fUVbQQDJ-37" value="0..n" style="endArrow=open;html=1;endSize=12;startArrow=diamondThin;startSize=14;startFill=1;edgeStyle=orthogonalEdgeStyle;align=left;verticalAlign=bottom;strokeWidth=1;exitX=1;exitY=0.25;exitDx=0;exitDy=0;fillColor=#b0e3e6;strokeColor=#0e8088;opacity=60;" parent="1" source="52S6UJCDuXW4AV97fZFU-30" target="E1yKPfijJHyPbYJbG4GJ-41" edge="1">
          <mxGeometry relative="1" as="geometry">
            <mxPoint x="1744.000000000001" y="992" as="sourcePoint" />
            <mxPoint x="1610.5" y="1067" as="targetPoint" />
          </mxGeometry>
        </mxCell>
        <mxCell id="uvyQVKtZNlK0fUVbQQDJ-38" value="" style="edgeStyle=orthogonalEdgeStyle;fontSize=12;html=1;endArrow=ERmandOne;startArrow=ERmandOne;exitX=0.5;exitY=0;exitDx=0;exitDy=0;entryX=0.5;entryY=1;entryDx=0;entryDy=0;" parent="1" source="FQ2XHo6aB85YoyOK63lh-34" target="52S6UJCDuXW4AV97fZFU-30" edge="1">
          <mxGeometry width="100" height="100" relative="1" as="geometry">
            <mxPoint x="1495.75" y="2.0000000000002274" as="sourcePoint" />
            <mxPoint x="1262.25" y="-72.99999999999977" as="targetPoint" />
          </mxGeometry>
        </mxCell>
        <mxCell id="uvyQVKtZNlK0fUVbQQDJ-39" value="0..n" style="endArrow=open;html=1;endSize=12;startArrow=diamondThin;startSize=14;startFill=1;edgeStyle=orthogonalEdgeStyle;align=left;verticalAlign=bottom;strokeWidth=1;exitX=0;exitY=0.25;exitDx=0;exitDy=0;fillColor=#b0e3e6;strokeColor=#0e8088;opacity=60;" parent="1" source="52S6UJCDuXW4AV97fZFU-30" target="52S6UJCDuXW4AV97fZFU-38" edge="1">
          <mxGeometry relative="1" as="geometry">
            <mxPoint x="1292" y="736.125" as="sourcePoint" />
            <mxPoint x="1350" y="746" as="targetPoint" />
          </mxGeometry>
        </mxCell>
        <mxCell id="uvyQVKtZNlK0fUVbQQDJ-40" value="0..n" style="endArrow=open;html=1;endSize=12;startArrow=diamondThin;startSize=14;startFill=1;edgeStyle=orthogonalEdgeStyle;align=left;verticalAlign=bottom;strokeWidth=1;exitX=0;exitY=0.5;exitDx=0;exitDy=0;fillColor=#b0e3e6;strokeColor=#0e8088;opacity=60;entryX=1;entryY=0.25;entryDx=0;entryDy=0;" parent="1" source="52S6UJCDuXW4AV97fZFU-30" target="uUSE7LgSBabqXevBdUgd-38" edge="1">
          <mxGeometry relative="1" as="geometry">
            <mxPoint x="1128" y="736.125" as="sourcePoint" />
            <mxPoint x="1056.500000000001" y="747.5714285714289" as="targetPoint" />
          </mxGeometry>
        </mxCell>
        <mxCell id="BgNwUCcEjjvmfO4e12St-31" value="0..n" style="endArrow=open;html=1;endSize=12;startArrow=diamondThin;startSize=14;startFill=1;edgeStyle=orthogonalEdgeStyle;align=left;verticalAlign=bottom;strokeWidth=1;entryX=0.5;entryY=0;entryDx=0;entryDy=0;fillColor=#b0e3e6;strokeColor=#0e8088;opacity=60;exitX=0.75;exitY=1;exitDx=0;exitDy=0;" parent="1" source="0po9gxngi8_i5DU3Apx4-30" target="BgNwUCcEjjvmfO4e12St-30" edge="1">
          <mxGeometry relative="1" as="geometry">
            <mxPoint x="-503" y="-128" as="sourcePoint" />
            <mxPoint x="-842" y="167" as="targetPoint" />
          </mxGeometry>
        </mxCell>
        <mxCell id="BgNwUCcEjjvmfO4e12St-32" value="&lt;p style=&quot;margin: 0px ; margin-top: 4px ; text-align: center ; text-decoration: underline&quot;&gt;&lt;b&gt;StorageBucket&lt;/b&gt;&lt;/p&gt;&lt;hr&gt;&lt;p style=&quot;margin: 0px ; margin-left: 8px&quot;&gt;id: ID&lt;/p&gt;&lt;p style=&quot;margin: 0px ; margin-left: 8px&quot;&gt;&lt;span style=&quot;background-color: initial;&quot;&gt;allowedMimetTypes: MimeType[]&lt;/span&gt;&lt;/p&gt;&lt;p style=&quot;margin: 0px ; margin-left: 8px&quot;&gt;&lt;span style=&quot;background-color: initial;&quot;&gt;maxFileSize: int&lt;/span&gt;&lt;/p&gt;&lt;p style=&quot;margin: 0px ; margin-left: 8px&quot;&gt;&lt;span style=&quot;background-color: initial;&quot;&gt;documents: Document[]&lt;/span&gt;&lt;/p&gt;&lt;p style=&quot;margin: 0px ; margin-left: 8px&quot;&gt;&lt;br&gt;&lt;/p&gt;" style="verticalAlign=top;align=left;overflow=fill;fontSize=12;fontFamily=Helvetica;html=1;strokeColor=#d79b00;shadow=1;fillColor=#FFCE9F;" parent="1" vertex="1">
          <mxGeometry x="395.5" y="814" width="222" height="107" as="geometry" />
        </mxCell>
        <mxCell id="BgNwUCcEjjvmfO4e12St-33" value="&lt;p style=&quot;margin: 0px ; margin-top: 4px ; text-align: center ; text-decoration: underline&quot;&gt;&lt;b&gt;Document&lt;/b&gt;&lt;/p&gt;&lt;hr&gt;&lt;p style=&quot;margin: 0px ; margin-left: 8px&quot;&gt;id: ID&lt;/p&gt;&lt;p style=&quot;margin: 0px ; margin-left: 8px&quot;&gt;mimeType: MimeType&lt;/p&gt;&lt;p style=&quot;margin: 0px ; margin-left: 8px&quot;&gt;size: int&lt;/p&gt;&lt;p style=&quot;margin: 0px ; margin-left: 8px&quot;&gt;displayName: string&lt;/p&gt;&lt;p style=&quot;margin: 0px ; margin-left: 8px&quot;&gt;createdBy: User&lt;/p&gt;&lt;p style=&quot;margin: 0px ; margin-left: 8px&quot;&gt;&lt;br&gt;&lt;/p&gt;" style="verticalAlign=top;align=left;overflow=fill;fontSize=12;fontFamily=Helvetica;html=1;strokeColor=#d79b00;shadow=1;fillColor=#FFCE9F;" parent="1" vertex="1">
          <mxGeometry x="418.5" y="989" width="186" height="111" as="geometry" />
        </mxCell>
        <mxCell id="BgNwUCcEjjvmfO4e12St-34" value="0..n" style="endArrow=open;html=1;endSize=12;startArrow=diamondThin;startSize=14;startFill=1;edgeStyle=orthogonalEdgeStyle;align=left;verticalAlign=bottom;strokeWidth=1;entryX=0.474;entryY=0.007;entryDx=0;entryDy=0;entryPerimeter=0;exitX=0.5;exitY=1;exitDx=0;exitDy=0;" parent="1" source="BgNwUCcEjjvmfO4e12St-32" target="BgNwUCcEjjvmfO4e12St-33" edge="1">
          <mxGeometry x="0.3684" y="3" relative="1" as="geometry">
            <mxPoint x="512.5" y="906" as="sourcePoint" />
            <mxPoint x="1213.5" y="762.5300000000001" as="targetPoint" />
            <mxPoint y="1" as="offset" />
          </mxGeometry>
        </mxCell>
        <mxCell id="lY5sdVedkNxhWJHI0kl--29" value="&lt;p style=&quot;margin: 0px ; margin-top: 4px ; text-align: center ; text-decoration: underline&quot;&gt;&lt;b&gt;TagsetTemplate&lt;/b&gt;&lt;/p&gt;&lt;hr&gt;&lt;p style=&quot;margin: 0px ; margin-left: 8px&quot;&gt;id: ID&lt;/p&gt;&lt;p style=&quot;margin: 0px ; margin-left: 8px&quot;&gt;name: string&lt;/p&gt;&lt;p style=&quot;margin: 0px ; margin-left: 8px&quot;&gt;allowedValues: string[]&lt;/p&gt;&lt;p style=&quot;margin: 0px ; margin-left: 8px&quot;&gt;&lt;br&gt;&lt;/p&gt;" style="verticalAlign=top;align=left;overflow=fill;fontSize=12;fontFamily=Helvetica;html=1;strokeColor=#666666;shadow=1;fillColor=#f5f5f5;fontColor=#333333;" parent="1" vertex="1">
          <mxGeometry x="897.1300000000001" y="1133" width="167.25" height="93" as="geometry" />
        </mxCell>
        <mxCell id="lY5sdVedkNxhWJHI0kl--31" value="&lt;p style=&quot;margin: 0px ; margin-top: 4px ; text-align: center ; text-decoration: underline&quot;&gt;&lt;b&gt;InnovationFlow&lt;/b&gt;&lt;/p&gt;&lt;hr&gt;&lt;p style=&quot;margin: 0px ; margin-left: 8px&quot;&gt;id: ID&lt;/p&gt;&amp;nbsp; profile: Profile&lt;p style=&quot;margin: 0px ; margin-left: 8px&quot;&gt;states:FlowState[]&lt;/p&gt;" style="verticalAlign=top;align=left;overflow=fill;fontSize=12;fontFamily=Helvetica;html=1;strokeColor=default;shadow=1;fillColor=#FFFFCC;opacity=60;" parent="1" vertex="1">
          <mxGeometry x="-644" y="307" width="214" height="103" as="geometry" />
        </mxCell>
        <mxCell id="lY5sdVedkNxhWJHI0kl--34" style="edgeStyle=orthogonalEdgeStyle;rounded=0;orthogonalLoop=1;jettySize=auto;html=1;entryX=1;entryY=0.5;entryDx=0;entryDy=0;" parent="1" source="lY5sdVedkNxhWJHI0kl--33" target="lY5sdVedkNxhWJHI0kl--29" edge="1">
          <mxGeometry relative="1" as="geometry" />
        </mxCell>
        <mxCell id="lY5sdVedkNxhWJHI0kl--33" value="&lt;p style=&quot;margin: 0px ; margin-top: 4px ; text-align: center ; text-decoration: underline&quot;&gt;&lt;b&gt;TagsetTemplateSet&lt;/b&gt;&lt;/p&gt;&lt;hr&gt;&lt;p style=&quot;margin: 0px ; margin-left: 8px&quot;&gt;id: ID&lt;/p&gt;&lt;p style=&quot;margin: 0px ; margin-left: 8px&quot;&gt;name: string&lt;/p&gt;&lt;p style=&quot;margin: 0px ; margin-left: 8px&quot;&gt;tagsetTemplates: TagsetTemplate[]&lt;/p&gt;&lt;p style=&quot;margin: 0px ; margin-left: 8px&quot;&gt;&lt;br&gt;&lt;/p&gt;" style="verticalAlign=top;align=left;overflow=fill;fontSize=12;fontFamily=Helvetica;html=1;strokeColor=#666666;shadow=1;fillColor=#f5f5f5;fontColor=#333333;" parent="1" vertex="1">
          <mxGeometry x="1123" y="1047" width="209" height="93" as="geometry" />
        </mxCell>
        <mxCell id="M3meeMQkK0GjU1I2r6OC-29" value="0..n" style="endArrow=open;html=1;endSize=12;startArrow=diamondThin;startSize=14;startFill=1;edgeStyle=orthogonalEdgeStyle;align=left;verticalAlign=bottom;strokeWidth=1;entryX=1;entryY=0.25;entryDx=0;entryDy=0;fillColor=#b0e3e6;strokeColor=#0e8088;opacity=60;exitX=0;exitY=0.75;exitDx=0;exitDy=0;" parent="1" source="M3meeMQkK0GjU1I2r6OC-32" target="M3meeMQkK0GjU1I2r6OC-34" edge="1">
          <mxGeometry relative="1" as="geometry">
            <mxPoint x="-1420" y="623.5" as="sourcePoint" />
            <mxPoint x="-1547" y="748.5" as="targetPoint" />
          </mxGeometry>
        </mxCell>
        <mxCell id="M3meeMQkK0GjU1I2r6OC-30" value="0..n" style="endArrow=open;html=1;endSize=12;startArrow=none;startSize=14;startFill=1;edgeStyle=orthogonalEdgeStyle;align=left;verticalAlign=bottom;strokeWidth=1;entryX=0.802;entryY=0.002;entryDx=0;entryDy=0;fillColor=#b0e3e6;strokeColor=#0e8088;opacity=60;exitX=0.25;exitY=1;exitDx=0;exitDy=0;entryPerimeter=0;" parent="1" source="M3meeMQkK0GjU1I2r6OC-32" target="M3meeMQkK0GjU1I2r6OC-31" edge="1">
          <mxGeometry relative="1" as="geometry">
            <mxPoint x="-1347.9520000000002" y="621.806" as="sourcePoint" />
            <mxPoint x="-1344" y="831.51" as="targetPoint" />
          </mxGeometry>
        </mxCell>
        <mxCell id="M3meeMQkK0GjU1I2r6OC-31" value="&lt;p style=&quot;margin: 0px ; margin-top: 4px ; text-align: center ; text-decoration: underline&quot;&gt;&lt;b&gt;WhiteboardTemplate&lt;/b&gt;&lt;/p&gt;&lt;hr&gt;&lt;p style=&quot;margin: 0px ; margin-left: 8px&quot;&gt;id: ID&lt;/p&gt;&lt;p style=&quot;margin: 0px ; margin-left: 8px&quot;&gt;profile: Profile&lt;/p&gt;&lt;p style=&quot;margin: 0px ; margin-left: 8px&quot;&gt;content: WhiteboardContent&lt;/p&gt;" style="verticalAlign=top;align=left;overflow=fill;fontSize=12;fontFamily=Helvetica;html=1;strokeColor=#0e8088;shadow=1;fillColor=#b0e3e6;opacity=60;" parent="1" vertex="1">
          <mxGeometry x="-1234" y="775" width="201" height="136.5" as="geometry" />
        </mxCell>
        <mxCell id="M3meeMQkK0GjU1I2r6OC-32" value="&lt;p style=&quot;margin: 0px ; margin-top: 4px ; text-align: center ; text-decoration: underline&quot;&gt;&lt;b&gt;TemplatesSet&lt;/b&gt;&lt;/p&gt;&lt;hr&gt;&lt;p style=&quot;margin: 0px ; margin-left: 8px&quot;&gt;id: ID&lt;/p&gt;&lt;p style=&quot;margin: 0px ; margin-left: 8px&quot;&gt;postTemplates: PostTemplate[]&lt;/p&gt;&lt;p style=&quot;margin: 0px ; margin-left: 8px&quot;&gt;whiteboardTemplates: WhiteboardTemplate[]&lt;/p&gt;&lt;p style=&quot;margin: 0px ; margin-left: 8px&quot;&gt;innovationFlowTemplate: InnovationFlowTemplate[]&lt;/p&gt;&lt;p style=&quot;margin: 0px ; margin-left: 8px&quot;&gt;calloutTemplates: CalloutTemplate[]&lt;/p&gt;" style="verticalAlign=top;align=left;overflow=fill;fontSize=12;fontFamily=Helvetica;html=1;strokeColor=#0e8088;shadow=1;fillColor=#b0e3e6;opacity=60;" parent="1" vertex="1">
          <mxGeometry x="-1020.5" y="400" width="316" height="155" as="geometry" />
        </mxCell>
        <mxCell id="M3meeMQkK0GjU1I2r6OC-33" value="&lt;p style=&quot;margin: 0px ; margin-top: 4px ; text-align: center ; text-decoration: underline&quot;&gt;&lt;b&gt;InnovationFlowTemplate&lt;/b&gt;&lt;/p&gt;&lt;hr&gt;&lt;p style=&quot;border-color: var(--border-color); margin: 0px 0px 0px 8px;&quot;&gt;id: ID&lt;/p&gt;&lt;p style=&quot;margin: 0px ; margin-left: 8px&quot;&gt;profile: Profile&lt;/p&gt;&lt;p style=&quot;margin: 0px ; margin-left: 8px&quot;&gt;states: FlowState[]&lt;/p&gt;" style="verticalAlign=top;align=left;overflow=fill;fontSize=12;fontFamily=Helvetica;html=1;strokeColor=#0e8088;shadow=1;fillColor=#b0e3e6;opacity=60;" parent="1" vertex="1">
          <mxGeometry x="-1429" y="410.5" width="201" height="140" as="geometry" />
        </mxCell>
        <mxCell id="M3meeMQkK0GjU1I2r6OC-34" value="&lt;p style=&quot;margin: 0px ; margin-top: 4px ; text-align: center ; text-decoration: underline&quot;&gt;&lt;b&gt;PostTemplate&lt;/b&gt;&lt;/p&gt;&lt;hr&gt;&lt;p style=&quot;border-color: var(--border-color); margin: 0px 0px 0px 8px;&quot;&gt;id: ID&lt;/p&gt;&lt;p style=&quot;margin: 0px ; margin-left: 8px&quot;&gt;profile: Profile&lt;/p&gt;&lt;p style=&quot;margin: 0px ; margin-left: 8px&quot;&gt;type: string&lt;/p&gt;&lt;p style=&quot;margin: 0px ; margin-left: 8px&quot;&gt;defaultDescription: Markdown&lt;/p&gt;" style="verticalAlign=top;align=left;overflow=fill;fontSize=12;fontFamily=Helvetica;html=1;strokeColor=#0e8088;shadow=1;fillColor=#b0e3e6;opacity=60;" parent="1" vertex="1">
          <mxGeometry x="-1429" y="566.5" width="201" height="135.5" as="geometry" />
        </mxCell>
        <mxCell id="M3meeMQkK0GjU1I2r6OC-35" value="0..n" style="endArrow=open;html=1;endSize=12;startArrow=diamondThin;startSize=14;startFill=1;edgeStyle=orthogonalEdgeStyle;align=left;verticalAlign=bottom;strokeWidth=1;entryX=1;entryY=0.25;entryDx=0;entryDy=0;fillColor=#b0e3e6;strokeColor=#0e8088;opacity=60;exitX=0;exitY=0.5;exitDx=0;exitDy=0;" parent="1" source="M3meeMQkK0GjU1I2r6OC-32" target="M3meeMQkK0GjU1I2r6OC-33" edge="1">
          <mxGeometry relative="1" as="geometry">
            <mxPoint x="-1499" y="623.5" as="sourcePoint" />
            <mxPoint x="-1402.499999999999" y="721.5" as="targetPoint" />
          </mxGeometry>
        </mxCell>
        <mxCell id="M3meeMQkK0GjU1I2r6OC-38" value="&lt;p style=&quot;margin: 0px ; margin-top: 4px ; text-align: center ; text-decoration: underline&quot;&gt;&lt;b&gt;CalloutTemplate&lt;/b&gt;&lt;/p&gt;&lt;hr&gt;&lt;p style=&quot;border-color: var(--border-color); margin: 0px 0px 0px 8px;&quot;&gt;id: ID&lt;/p&gt;&lt;p style=&quot;border-color: var(--border-color); margin: 0px 0px 0px 8px;&quot;&gt;profile: Profile&lt;/p&gt;&lt;p style=&quot;border-color: var(--border-color); margin: 0px 0px 0px 8px;&quot;&gt;type: CalloutType&lt;/p&gt;&lt;p style=&quot;border-color: var(--border-color); margin: 0px 0px 0px 8px;&quot;&gt;&lt;br style=&quot;border-color: var(--border-color);&quot;&gt;&lt;/p&gt;&lt;p style=&quot;border-color: var(--border-color); margin: 0px 0px 0px 8px;&quot;&gt;framing: CalloutFraming&lt;/p&gt;&lt;p style=&quot;border-color: var(--border-color); margin: 0px 0px 0px 8px;&quot;&gt;contributionPolicy: ContributionPolicy&lt;/p&gt;&lt;p style=&quot;border-color: var(--border-color); margin: 0px 0px 0px 8px;&quot;&gt;contributionDefaults: ContributionDefaults&lt;/p&gt;&lt;p style=&quot;border-color: var(--border-color); margin: 0px 0px 0px 8px;&quot;&gt;&lt;br&gt;&lt;/p&gt;" style="verticalAlign=top;align=left;overflow=fill;fontSize=12;fontFamily=Helvetica;html=1;strokeColor=#0e8088;shadow=1;fillColor=#b0e3e6;opacity=60;" parent="1" vertex="1">
          <mxGeometry x="-1005" y="775" width="316" height="138" as="geometry" />
        </mxCell>
        <mxCell id="M3meeMQkK0GjU1I2r6OC-45" value="0..n" style="endArrow=open;html=1;endSize=12;startArrow=none;startSize=14;startFill=1;edgeStyle=orthogonalEdgeStyle;align=left;verticalAlign=bottom;strokeWidth=1;entryX=0.477;entryY=0.025;entryDx=0;entryDy=0;fillColor=#b0e3e6;strokeColor=#0e8088;opacity=60;exitX=0.5;exitY=1;exitDx=0;exitDy=0;entryPerimeter=0;" parent="1" source="M3meeMQkK0GjU1I2r6OC-32" target="M3meeMQkK0GjU1I2r6OC-38" edge="1">
          <mxGeometry x="-0.8862" y="10" relative="1" as="geometry">
            <mxPoint x="-1195" y="568.5" as="sourcePoint" />
            <mxPoint x="-1157" y="730.5" as="targetPoint" />
            <mxPoint x="-1" as="offset" />
          </mxGeometry>
        </mxCell>
        <mxCell id="jUQgdawCYTuHx77WMf0Y-29" value="&lt;p style=&quot;margin: 0px ; margin-top: 4px ; text-align: center ; text-decoration: underline&quot;&gt;&lt;b&gt;CalloutContribution&lt;/b&gt;&lt;/p&gt;&lt;hr&gt;&lt;p style=&quot;margin: 0px ; margin-left: 8px&quot;&gt;id: ID&lt;/p&gt;&lt;p style=&quot;margin: 0px ; margin-left: 8px&quot;&gt;createdBy: string&lt;/p&gt;&lt;p style=&quot;margin: 0px ; margin-left: 8px&quot;&gt;post: Post&lt;/p&gt;&lt;p style=&quot;margin: 0px ; margin-left: 8px&quot;&gt;whiteboard: Whiteboard&lt;/p&gt;&lt;p style=&quot;margin: 0px ; margin-left: 8px&quot;&gt;link: Link&lt;/p&gt;" style="verticalAlign=top;align=left;overflow=fill;fontSize=12;fontFamily=Helvetica;html=1;strokeColor=#0e8088;shadow=1;fillColor=#FFFFCC;opacity=60;" parent="1" vertex="1">
          <mxGeometry x="-231" y="675.5" width="195" height="142.5" as="geometry" />
        </mxCell>
        <mxCell id="jUQgdawCYTuHx77WMf0Y-30" value="&lt;p style=&quot;margin: 0px ; margin-top: 4px ; text-align: center ; text-decoration: underline&quot;&gt;&lt;b&gt;ContributionPolicy&lt;/b&gt;&lt;/p&gt;&lt;hr&gt;&lt;p style=&quot;margin: 0px ; margin-left: 8px&quot;&gt;id: ID&lt;/p&gt;&lt;p style=&quot;margin: 0px ; margin-left: 8px&quot;&gt;&lt;span style=&quot;background-color: initial;&quot;&gt;allowedContributionTypes: [ContributionType]&lt;/span&gt;&lt;br&gt;&lt;/p&gt;&lt;p style=&quot;margin: 0px ; margin-left: 8px&quot;&gt;state: CalloutState&lt;/p&gt;&lt;p style=&quot;margin: 0px ; margin-left: 8px&quot;&gt;&lt;br&gt;&lt;/p&gt;" style="verticalAlign=top;align=left;overflow=fill;fontSize=12;fontFamily=Helvetica;html=1;strokeColor=#0e8088;shadow=1;fillColor=#FFFFCC;opacity=60;" parent="1" vertex="1">
          <mxGeometry x="-598" y="815" width="259" height="113" as="geometry" />
        </mxCell>
        <mxCell id="jUQgdawCYTuHx77WMf0Y-32" value="&lt;p style=&quot;margin: 0px ; margin-top: 4px ; text-align: center ; text-decoration: underline&quot;&gt;&lt;b&gt;CalloutFraming&lt;/b&gt;&lt;/p&gt;&lt;hr&gt;&lt;p style=&quot;margin: 0px ; margin-left: 8px&quot;&gt;id: ID&lt;/p&gt;&lt;p style=&quot;margin: 0px ; margin-left: 8px&quot;&gt;&lt;span style=&quot;background-color: initial;&quot;&gt;profile: Profile&lt;/span&gt;&lt;/p&gt;&lt;p style=&quot;margin: 0px ; margin-left: 8px&quot;&gt;&lt;span style=&quot;background-color: initial;&quot;&gt;whiteboardRT: WhiteboardRT&amp;nbsp;&lt;/span&gt;&lt;/p&gt;" style="verticalAlign=top;align=left;overflow=fill;fontSize=12;fontFamily=Helvetica;html=1;strokeColor=#0e8088;shadow=1;fillColor=#FFFFCC;opacity=60;" parent="1" vertex="1">
          <mxGeometry x="-598" y="947" width="260" height="118" as="geometry" />
        </mxCell>
        <mxCell id="jUQgdawCYTuHx77WMf0Y-34" value="&lt;p style=&quot;margin: 0px ; margin-top: 4px ; text-align: center ; text-decoration: underline&quot;&gt;&lt;b&gt;ContributionDefaults&lt;/b&gt;&lt;/p&gt;&lt;hr&gt;&lt;p style=&quot;margin: 0px ; margin-left: 8px&quot;&gt;id: ID&lt;/p&gt;&lt;p style=&quot;margin: 0px ; margin-left: 8px&quot;&gt;description: string&lt;/p&gt;&lt;p style=&quot;margin: 0px ; margin-left: 8px&quot;&gt;whiteboardContent: WhiteboardContent&lt;/p&gt;&lt;p style=&quot;margin: 0px ; margin-left: 8px&quot;&gt;&lt;br&gt;&lt;/p&gt;&lt;p style=&quot;margin: 0px ; margin-left: 8px&quot;&gt;&lt;br&gt;&lt;/p&gt;" style="verticalAlign=top;align=left;overflow=fill;fontSize=12;fontFamily=Helvetica;html=1;strokeColor=#0e8088;shadow=1;fillColor=#FFFFCC;opacity=60;" parent="1" vertex="1">
          <mxGeometry x="-600" y="674" width="259" height="112" as="geometry" />
        </mxCell>
        <mxCell id="jUQgdawCYTuHx77WMf0Y-35" value="" style="edgeStyle=orthogonalEdgeStyle;fontSize=12;html=1;endArrow=ERmandOne;startArrow=ERmandOne;exitX=1;exitY=0.5;exitDx=0;exitDy=0;entryX=0;entryY=0.25;entryDx=0;entryDy=0;" parent="1" source="M3meeMQkK0GjU1I2r6OC-38" target="jUQgdawCYTuHx77WMf0Y-30" edge="1">
          <mxGeometry width="100" height="100" relative="1" as="geometry">
            <mxPoint x="-2060" y="1329.5" as="sourcePoint" />
            <mxPoint x="-2090" y="1455.5" as="targetPoint" />
          </mxGeometry>
        </mxCell>
        <mxCell id="jUQgdawCYTuHx77WMf0Y-36" value="" style="edgeStyle=orthogonalEdgeStyle;fontSize=12;html=1;endArrow=ERmandOne;startArrow=ERmandOne;exitX=0.5;exitY=1;exitDx=0;exitDy=0;entryX=1;entryY=0.25;entryDx=0;entryDy=0;" parent="1" source="l3QMB8aYCtV3EK-DeP1m-29" target="jUQgdawCYTuHx77WMf0Y-32" edge="1">
          <mxGeometry width="100" height="100" relative="1" as="geometry">
            <mxPoint x="-1942" y="1395.5" as="sourcePoint" />
            <mxPoint x="-2183" y="1488.5" as="targetPoint" />
            <Array as="points">
              <mxPoint x="-195" y="517" />
              <mxPoint x="-260" y="517" />
              <mxPoint x="-260" y="977" />
            </Array>
          </mxGeometry>
        </mxCell>
        <mxCell id="jUQgdawCYTuHx77WMf0Y-38" value="" style="edgeStyle=orthogonalEdgeStyle;fontSize=12;html=1;endArrow=ERmandOne;startArrow=ERmandOne;exitX=1;exitY=0.25;exitDx=0;exitDy=0;" parent="1" source="M3meeMQkK0GjU1I2r6OC-38" target="jUQgdawCYTuHx77WMf0Y-34" edge="1">
          <mxGeometry width="100" height="100" relative="1" as="geometry">
            <mxPoint x="-886" y="872" as="sourcePoint" />
            <mxPoint x="-2175" y="1498.5" as="targetPoint" />
          </mxGeometry>
        </mxCell>
        <mxCell id="diEMbD0KvmSpmZcEwt64-30" value="&lt;p style=&quot;margin: 0px ; margin-top: 4px ; text-align: center ; text-decoration: underline&quot;&gt;&lt;b&gt;Whiteboard&lt;/b&gt;&lt;/p&gt;&lt;hr&gt;&lt;p style=&quot;margin: 0px ; margin-left: 8px&quot;&gt;id: ID&lt;/p&gt;&lt;p style=&quot;margin: 0px ; margin-left: 8px&quot;&gt;nameID: string&lt;/p&gt;&lt;p style=&quot;margin: 0px ; margin-left: 8px&quot;&gt;profile: Profile&lt;/p&gt;&lt;p style=&quot;margin: 0px ; margin-left: 8px&quot;&gt;content: WhiteboardContent&amp;nbsp;&lt;/p&gt;" style="verticalAlign=top;align=left;overflow=fill;fontSize=12;fontFamily=Helvetica;html=1;strokeColor=#666666;shadow=1;fillColor=#FFFFCC;fontColor=#333333;opacity=60;" parent="1" vertex="1">
          <mxGeometry x="-454" y="1143" width="176" height="128" as="geometry" />
        </mxCell>
        <mxCell id="diEMbD0KvmSpmZcEwt64-31" value="" style="edgeStyle=orthogonalEdgeStyle;fontSize=12;html=1;endArrow=ERmandOne;startArrow=ERmandOne;entryX=0.25;entryY=1;entryDx=0;entryDy=0;exitX=0.25;exitY=0;exitDx=0;exitDy=0;" parent="1" source="diEMbD0KvmSpmZcEwt64-30" target="jUQgdawCYTuHx77WMf0Y-32" edge="1">
          <mxGeometry width="100" height="100" relative="1" as="geometry">
            <mxPoint x="-524" y="899" as="sourcePoint" />
            <mxPoint x="-466" y="723.25" as="targetPoint" />
          </mxGeometry>
        </mxCell>
        <mxCell id="RYJH6-Tlu83J3zpBzYiU-31" value="" style="edgeStyle=orthogonalEdgeStyle;fontSize=12;html=1;endArrow=ERmandOne;startArrow=ERmandOne;exitX=0.75;exitY=1;exitDx=0;exitDy=0;entryX=0.5;entryY=0;entryDx=0;entryDy=0;" parent="1" source="jUQgdawCYTuHx77WMf0Y-29" target="G8CPrSdooPZw7x7xq0sv-33" edge="1">
          <mxGeometry width="100" height="100" relative="1" as="geometry">
            <mxPoint x="-133" y="1123" as="sourcePoint" />
            <mxPoint x="-22" y="1243" as="targetPoint" />
          </mxGeometry>
        </mxCell>
        <mxCell id="RYJH6-Tlu83J3zpBzYiU-32" value="" style="edgeStyle=orthogonalEdgeStyle;fontSize=12;html=1;endArrow=ERmandOne;startArrow=ERmandOne;entryX=0.25;entryY=1;entryDx=0;entryDy=0;exitX=0.75;exitY=0;exitDx=0;exitDy=0;" parent="1" source="diEMbD0KvmSpmZcEwt64-30" target="jUQgdawCYTuHx77WMf0Y-29" edge="1">
          <mxGeometry width="100" height="100" relative="1" as="geometry">
            <mxPoint x="-474" y="1255" as="sourcePoint" />
            <mxPoint x="-523" y="1087" as="targetPoint" />
          </mxGeometry>
        </mxCell>
        <mxCell id="RYJH6-Tlu83J3zpBzYiU-34" value="" style="edgeStyle=orthogonalEdgeStyle;fontSize=12;html=1;endArrow=ERmandOne;startArrow=ERmandOne;exitX=0.75;exitY=0;exitDx=0;exitDy=0;entryX=0;entryY=0.5;entryDx=0;entryDy=0;" parent="1" source="jUQgdawCYTuHx77WMf0Y-34" target="l3QMB8aYCtV3EK-DeP1m-29" edge="1">
          <mxGeometry width="100" height="100" relative="1" as="geometry">
            <mxPoint x="-845" y="866" as="sourcePoint" />
            <mxPoint x="-711" y="680" as="targetPoint" />
            <Array as="points">
              <mxPoint x="-406" y="572" />
              <mxPoint x="-376" y="572" />
              <mxPoint x="-376" y="359" />
            </Array>
          </mxGeometry>
        </mxCell>
        <mxCell id="RYJH6-Tlu83J3zpBzYiU-35" value="" style="edgeStyle=orthogonalEdgeStyle;fontSize=12;html=1;endArrow=ERmandOne;startArrow=ERmandOne;exitX=0;exitY=0.75;exitDx=0;exitDy=0;entryX=1;entryY=0.25;entryDx=0;entryDy=0;" parent="1" source="l3QMB8aYCtV3EK-DeP1m-29" target="jUQgdawCYTuHx77WMf0Y-30" edge="1">
          <mxGeometry width="100" height="100" relative="1" as="geometry">
            <mxPoint x="-939" y="863" as="sourcePoint" />
            <mxPoint x="-1113" y="1002" as="targetPoint" />
          </mxGeometry>
        </mxCell>
        <mxCell id="v13QF7GwH6I85Fnh_Pga-29" value="" style="edgeStyle=orthogonalEdgeStyle;fontSize=12;html=1;endArrow=ERmandOne;startArrow=ERmandOne;exitX=1;exitY=0.75;exitDx=0;exitDy=0;entryX=0;entryY=0.75;entryDx=0;entryDy=0;" parent="1" source="M3meeMQkK0GjU1I2r6OC-38" target="jUQgdawCYTuHx77WMf0Y-32" edge="1">
          <mxGeometry width="100" height="100" relative="1" as="geometry">
            <mxPoint x="-610.52" y="781.998" as="sourcePoint" />
            <mxPoint x="-683" y="926.98" as="targetPoint" />
          </mxGeometry>
        </mxCell>
        <mxCell id="3wyqFmvJxkK5WmPaaufU-32" value="&lt;p style=&quot;margin: 0px ; margin-top: 4px ; text-align: center ; text-decoration: underline&quot;&gt;&lt;b&gt;StorageAggregator&lt;/b&gt;&lt;/p&gt;&lt;hr&gt;&lt;p style=&quot;margin: 0px ; margin-left: 8px&quot;&gt;id: ID&lt;/p&gt;&lt;p style=&quot;margin: 0px ; margin-left: 8px&quot;&gt;&lt;span style=&quot;background-color: initial;&quot;&gt;directStorage: StorageBucket&lt;/span&gt;&lt;br&gt;&lt;/p&gt;&lt;p style=&quot;margin: 0px ; margin-left: 8px&quot;&gt;&lt;span style=&quot;background-color: initial;&quot;&gt;childAggregators: StorageAggregator[]&lt;/span&gt;&lt;/p&gt;&lt;p style=&quot;margin: 0px ; margin-left: 8px&quot;&gt;&lt;span style=&quot;background-color: initial;&quot;&gt;storageBuckets: StorageBucket[]&lt;/span&gt;&lt;/p&gt;&lt;p style=&quot;margin: 0px ; margin-left: 8px&quot;&gt;&lt;br&gt;&lt;/p&gt;" style="verticalAlign=top;align=left;overflow=fill;fontSize=12;fontFamily=Helvetica;html=1;strokeColor=#d79b00;shadow=1;fillColor=#FFCE9F;" parent="1" vertex="1">
          <mxGeometry x="394" y="637" width="224" height="117" as="geometry" />
        </mxCell>
        <mxCell id="3wyqFmvJxkK5WmPaaufU-33" value="0..n" style="endArrow=open;html=1;endSize=12;startArrow=diamondThin;startSize=14;startFill=1;edgeStyle=orthogonalEdgeStyle;align=left;verticalAlign=bottom;strokeWidth=1;entryX=0.5;entryY=0;entryDx=0;entryDy=0;exitX=0.5;exitY=1;exitDx=0;exitDy=0;" parent="1" source="3wyqFmvJxkK5WmPaaufU-32" target="BgNwUCcEjjvmfO4e12St-32" edge="1">
          <mxGeometry x="0.3684" y="3" relative="1" as="geometry">
            <mxPoint x="525.5" y="921" as="sourcePoint" />
            <mxPoint x="527.5" y="993" as="targetPoint" />
            <mxPoint y="1" as="offset" />
          </mxGeometry>
        </mxCell>
        <mxCell id="d5fjC4oDBq58oCW8FkMj-29" value="&lt;p style=&quot;margin: 0px ; margin-top: 4px ; text-align: center ; text-decoration: underline&quot;&gt;&lt;b&gt;FlowState&lt;/b&gt;&lt;/p&gt;&lt;hr&gt;&lt;p style=&quot;margin: 0px ; margin-left: 8px&quot;&gt;id: ID&lt;/p&gt;&lt;p style=&quot;margin: 0px ; margin-left: 8px&quot;&gt;displayName: string&lt;/p&gt;&lt;p style=&quot;margin: 0px ; margin-left: 8px&quot;&gt;description: Markdown&lt;/p&gt;" style="verticalAlign=top;align=left;overflow=fill;fontSize=12;fontFamily=Helvetica;html=1;strokeColor=default;shadow=1;fillColor=#FFFFCC;opacity=60;" parent="1" vertex="1">
          <mxGeometry x="-639" y="463" width="204" height="95" as="geometry" />
        </mxCell>
        <mxCell id="d5fjC4oDBq58oCW8FkMj-30" value="0..n" style="endArrow=open;html=1;endSize=12;startArrow=diamondThin;startSize=14;startFill=1;edgeStyle=orthogonalEdgeStyle;align=left;verticalAlign=bottom;strokeWidth=1;entryX=0.5;entryY=0;entryDx=0;entryDy=0;exitX=0.5;exitY=1;exitDx=0;exitDy=0;" parent="1" source="lY5sdVedkNxhWJHI0kl--31" target="d5fjC4oDBq58oCW8FkMj-29" edge="1">
          <mxGeometry x="0.3684" y="3" relative="1" as="geometry">
            <mxPoint x="-1208" y="296" as="sourcePoint" />
            <mxPoint x="-1227" y="355" as="targetPoint" />
            <mxPoint y="1" as="offset" />
          </mxGeometry>
        </mxCell>
        <mxCell id="d5fjC4oDBq58oCW8FkMj-34" value="&lt;p style=&quot;margin: 0px ; margin-top: 4px ; text-align: center ; text-decoration: underline&quot;&gt;&lt;b&gt;SpaceDefaults&lt;/b&gt;&lt;/p&gt;&lt;hr&gt;&lt;p style=&quot;margin: 0px ; margin-left: 8px&quot;&gt;id: ID&lt;/p&gt;&lt;p style=&quot;margin: 0px ; margin-left: 8px&quot;&gt;&lt;span&gt;flow: InnovationFlowTemplate&lt;/span&gt;&lt;/p&gt;" style="verticalAlign=top;align=left;overflow=fill;fontSize=12;fontFamily=Helvetica;html=1;strokeColor=#d79b00;shadow=1;fillColor=#A9C4EB;" parent="1" vertex="1">
          <mxGeometry x="482" y="-328" width="198" height="85" as="geometry" />
        </mxCell>
        <mxCell id="d5fjC4oDBq58oCW8FkMj-35" value="" style="edgeStyle=orthogonalEdgeStyle;fontSize=12;html=1;endArrow=ERmandOne;startArrow=ERmandOne;entryX=0;entryY=0.5;entryDx=0;entryDy=0;exitX=1;exitY=0.5;exitDx=0;exitDy=0;" parent="1" source="0po9gxngi8_i5DU3Apx4-30" target="d5fjC4oDBq58oCW8FkMj-34" edge="1">
          <mxGeometry width="100" height="100" relative="1" as="geometry">
            <mxPoint x="-26" y="13.25" as="sourcePoint" />
            <mxPoint x="85" y="-12.75" as="targetPoint" />
          </mxGeometry>
        </mxCell>
        <mxCell id="d5fjC4oDBq58oCW8FkMj-36" value="&lt;p style=&quot;margin: 0px ; margin-top: 4px ; text-align: center ; text-decoration: underline&quot;&gt;&lt;strong&gt;Link&lt;/strong&gt;&lt;/p&gt;&lt;hr&gt;&lt;p style=&quot;margin: 0px ; margin-left: 8px&quot;&gt;id: ID&lt;/p&gt;&lt;p style=&quot;margin: 0px ; margin-left: 8px&quot;&gt;nameID: string&lt;/p&gt;&lt;p style=&quot;margin: 0px ; margin-left: 8px&quot;&gt;profile: Profile&lt;br&gt;&lt;/p&gt;&lt;p style=&quot;margin: 0px ; margin-left: 8px&quot;&gt;&lt;span&gt;createdBy: User&lt;/span&gt;&lt;/p&gt;&lt;p style=&quot;margin: 0px ; margin-left: 8px&quot;&gt;url: string&lt;/p&gt;" style="verticalAlign=top;align=left;overflow=fill;fontSize=12;fontFamily=Helvetica;html=1;strokeColor=#d6b656;shadow=1;fillColor=#FFFFCC;opacity=60;" parent="1" vertex="1">
          <mxGeometry x="-247" y="1143" width="172" height="129" as="geometry" />
        </mxCell>
        <mxCell id="d5fjC4oDBq58oCW8FkMj-37" value="" style="edgeStyle=orthogonalEdgeStyle;fontSize=12;html=1;endArrow=ERmandOne;startArrow=ERmandOne;exitX=0.5;exitY=1;exitDx=0;exitDy=0;entryX=0.5;entryY=0;entryDx=0;entryDy=0;" parent="1" source="jUQgdawCYTuHx77WMf0Y-29" target="d5fjC4oDBq58oCW8FkMj-36" edge="1">
          <mxGeometry width="100" height="100" relative="1" as="geometry">
            <mxPoint x="-128.5" y="1125" as="sourcePoint" />
            <mxPoint x="-128.5" y="1218" as="targetPoint" />
          </mxGeometry>
        </mxCell>
        <mxCell id="0po9gxngi8_i5DU3Apx4-29" value="" style="edgeStyle=orthogonalEdgeStyle;fontSize=12;html=1;endArrow=ERmandOne;startArrow=ERmandOne;entryX=0;entryY=0.5;entryDx=0;entryDy=0;exitX=1;exitY=0.5;exitDx=0;exitDy=0;" parent="1" source="lY5sdVedkNxhWJHI0kl--31" target="XHzrQX2ppPqFaPMvTT7x-39" edge="1">
          <mxGeometry width="100" height="100" relative="1" as="geometry">
            <mxPoint x="25" y="724" as="sourcePoint" />
            <mxPoint x="-170" y="430" as="targetPoint" />
          </mxGeometry>
        </mxCell>
        <mxCell id="0po9gxngi8_i5DU3Apx4-30" value="&lt;p style=&quot;margin: 0px ; margin-top: 4px ; text-align: center ; text-decoration: underline&quot;&gt;&lt;b&gt;&lt;font color=&quot;#003366&quot;&gt;Account&lt;/font&gt;&lt;/b&gt;&lt;/p&gt;&lt;hr&gt;&lt;p style=&quot;margin: 0px 0px 0px 8px;&quot;&gt;&lt;font color=&quot;#003366&quot;&gt;host: User | Organization&lt;/font&gt;&lt;/p&gt;&lt;p style=&quot;margin: 0px 0px 0px 8px;&quot;&gt;&lt;font color=&quot;#003366&quot;&gt;agent: Agent&lt;/font&gt;&lt;/p&gt;&lt;p style=&quot;margin: 0px 0px 0px 8px;&quot;&gt;&lt;span style=&quot;color: rgb(0, 51, 102); background-color: initial;&quot;&gt;innovationPacks: InnovationPack[]&lt;/span&gt;&lt;/p&gt;&lt;div style=&quot;&quot;&gt;&lt;font color=&quot;#003366&quot;&gt;&amp;nbsp; virtualContributors: VirtualContributor[]&lt;/font&gt;&lt;/div&gt;&lt;div style=&quot;&quot;&gt;&lt;font color=&quot;#003366&quot;&gt;&amp;nbsp; innovationHubs: InnovationHub[]&lt;/font&gt;&lt;/div&gt;&lt;div style=&quot;&quot;&gt;&lt;span style=&quot;color: rgb(0, 51, 102);&quot;&gt;&amp;nbsp; defaults: SpaceDefaults&lt;/span&gt;&lt;font color=&quot;#003366&quot;&gt;&lt;br&gt;&lt;/font&gt;&lt;/div&gt;&lt;div style=&quot;&quot;&gt;&lt;font color=&quot;#003366&quot;&gt;&amp;nbsp; rootSpaceVisibility: SpaceVisibility&lt;/font&gt;&lt;/div&gt;&lt;div style=&quot;&quot;&gt;&amp;nbsp; &amp;nbsp;&lt;/div&gt;" style="verticalAlign=top;align=left;overflow=fill;fontSize=12;fontFamily=Helvetica;html=1;strokeColor=#d79b00;shadow=1;fillColor=#A9C4EB;" parent="1" vertex="1">
          <mxGeometry x="203.25" y="-425" width="224" height="152" as="geometry" />
        </mxCell>
        <mxCell id="0po9gxngi8_i5DU3Apx4-31" value="" style="edgeStyle=orthogonalEdgeStyle;fontSize=12;html=1;endArrow=ERmandOne;startArrow=ERmandOne;entryX=0.5;entryY=1;entryDx=0;entryDy=0;exitX=0.5;exitY=0;exitDx=0;exitDy=0;" parent="1" source="XHzrQX2ppPqFaPMvTT7x-48" target="0po9gxngi8_i5DU3Apx4-30" edge="1">
          <mxGeometry width="100" height="100" relative="1" as="geometry">
            <mxPoint x="109" y="-102" as="sourcePoint" />
            <mxPoint x="-14" y="-28" as="targetPoint" />
          </mxGeometry>
        </mxCell>
        <mxCell id="DR3ljH1iR1fC5CyEwRCl-29" value="" style="edgeStyle=orthogonalEdgeStyle;fontSize=12;html=1;endArrow=ERmandOne;startArrow=ERmandOne;exitX=0.75;exitY=1;exitDx=0;exitDy=0;entryX=0.75;entryY=0;entryDx=0;entryDy=0;" parent="1" source="E1yKPfijJHyPbYJbG4GJ-29" target="E1yKPfijJHyPbYJbG4GJ-35" edge="1">
          <mxGeometry width="100" height="100" relative="1" as="geometry">
            <mxPoint x="836" y="414" as="sourcePoint" />
            <mxPoint x="808" y="461" as="targetPoint" />
          </mxGeometry>
        </mxCell>
        <mxCell id="DR3ljH1iR1fC5CyEwRCl-30" value="" style="edgeStyle=orthogonalEdgeStyle;fontSize=12;html=1;endArrow=ERmandOne;startArrow=ERmandOne;exitX=0.5;exitY=0;exitDx=0;exitDy=0;entryX=0;entryY=0.5;entryDx=0;entryDy=0;" parent="1" source="M3meeMQkK0GjU1I2r6OC-32" target="uvyQVKtZNlK0fUVbQQDJ-33" edge="1">
          <mxGeometry width="100" height="100" relative="1" as="geometry">
            <mxPoint x="-853" y="11" as="sourcePoint" />
            <mxPoint x="-852" y="-79" as="targetPoint" />
          </mxGeometry>
        </mxCell>
        <mxCell id="DR3ljH1iR1fC5CyEwRCl-31" value="" style="edgeStyle=orthogonalEdgeStyle;fontSize=12;html=1;endArrow=ERmandOne;startArrow=ERmandOne;entryX=0.75;entryY=1;entryDx=0;entryDy=0;exitX=0.25;exitY=0;exitDx=0;exitDy=0;" parent="1" source="g8zVUVb651xDIeDNfFYw-57" target="XHzrQX2ppPqFaPMvTT7x-39" edge="1">
          <mxGeometry width="100" height="100" relative="1" as="geometry">
            <mxPoint x="15" y="714" as="sourcePoint" />
            <mxPoint x="-166" y="171" as="targetPoint" />
            <Array as="points">
              <mxPoint x="-31" y="532" />
              <mxPoint x="-31" y="247" />
              <mxPoint x="-166" y="247" />
            </Array>
          </mxGeometry>
        </mxCell>
        <mxCell id="l3QMB8aYCtV3EK-DeP1m-29" value="&lt;p style=&quot;margin: 0px ; margin-top: 4px ; text-align: center ; text-decoration: underline&quot;&gt;&lt;b&gt;CallOut&lt;/b&gt;&lt;/p&gt;&lt;hr&gt;&lt;p style=&quot;margin: 0px 0px 0px 8px;&quot;&gt;id: ID&lt;/p&gt;&lt;p style=&quot;margin: 0px 0px 0px 8px;&quot;&gt;type: CalloutType&lt;/p&gt;&amp;nbsp; nameID: NameID&lt;p style=&quot;margin: 0px 0px 0px 8px;&quot;&gt;framing: CalloutFraming&lt;/p&gt;&lt;p style=&quot;margin: 0px ; margin-left: 8px&quot;&gt;comments: Room&lt;/p&gt;&lt;p style=&quot;margin: 0px ; margin-left: 8px&quot;&gt;state: CalloutState&lt;/p&gt;" style="verticalAlign=top;align=left;overflow=fill;fontSize=12;fontFamily=Helvetica;html=1;strokeColor=#0e8088;shadow=1;fillColor=#FFFFCC;opacity=60;" parent="1" vertex="1">
          <mxGeometry x="-320" y="274" width="249" height="169" as="geometry" />
        </mxCell>
        <mxCell id="DR3ljH1iR1fC5CyEwRCl-32" value="0..n" style="endArrow=open;html=1;endSize=12;startArrow=diamondThin;startSize=14;startFill=1;edgeStyle=orthogonalEdgeStyle;align=left;verticalAlign=bottom;strokeWidth=1;exitX=0.5;exitY=1;exitDx=0;exitDy=0;entryX=0.75;entryY=1;entryDx=0;entryDy=0;" parent="1" source="XHzrQX2ppPqFaPMvTT7x-48" target="XHzrQX2ppPqFaPMvTT7x-48" edge="1">
          <mxGeometry relative="1" as="geometry">
            <mxPoint x="530.63" y="314" as="sourcePoint" />
            <mxPoint x="523.0049999999995" y="251.25000000000023" as="targetPoint" />
            <Array as="points">
              <mxPoint x="315" y="299" />
              <mxPoint x="396" y="299" />
            </Array>
          </mxGeometry>
        </mxCell>
        <mxCell id="Io-MS7_X9WFdblsyxeVE-22" value="&lt;p style=&quot;margin: 0px ; margin-top: 4px ; text-align: center ; text-decoration: underline&quot;&gt;&lt;b&gt;Virtual Contributor&lt;/b&gt;&lt;/p&gt;&lt;hr&gt;&lt;p style=&quot;margin: 0px ; margin-left: 8px&quot;&gt;&lt;span style=&quot;background-color: initial;&quot;&gt;aiService: AiService&lt;/span&gt;&lt;br&gt;&lt;/p&gt;&lt;p style=&quot;margin: 0px ; margin-left: 8px&quot;&gt;&lt;span style=&quot;background-color: initial;&quot;&gt;visibility: VcVisibility&lt;/span&gt;&lt;/p&gt;&lt;p style=&quot;margin: 0px ; margin-left: 8px&quot;&gt;&lt;span style=&quot;background-color: initial;&quot;&gt;state: VcState&lt;/span&gt;&lt;/p&gt;" style="verticalAlign=top;align=left;overflow=fill;fontSize=12;fontFamily=Helvetica;html=1;strokeColor=#003366;shadow=1;fontColor=#003366;fillColor=#99FFCC;" parent="1" vertex="1">
          <mxGeometry x="1427" y="318.25" width="177" height="129" as="geometry" />
        </mxCell>
        <mxCell id="Io-MS7_X9WFdblsyxeVE-23" style="edgeStyle=orthogonalEdgeStyle;rounded=0;orthogonalLoop=1;jettySize=auto;html=1;exitX=0.5;exitY=1;exitDx=0;exitDy=0;startArrow=block;startFill=0;endArrow=none;endFill=0;entryX=0.5;entryY=0;entryDx=0;entryDy=0;" parent="1" source="FQ2XHo6aB85YoyOK63lh-29" target="Io-MS7_X9WFdblsyxeVE-22" edge="1">
          <mxGeometry relative="1" as="geometry">
            <mxPoint x="1216" y="278" as="sourcePoint" />
            <mxPoint x="1325" y="348" as="targetPoint" />
            <Array as="points">
              <mxPoint x="1311" y="262" />
              <mxPoint x="1515" y="262" />
            </Array>
          </mxGeometry>
        </mxCell>
        <mxCell id="g109RXZzPeZsBb1zn4cU-143" value="&lt;p style=&quot;margin: 0px ; margin-top: 4px ; text-align: center ; text-decoration: underline&quot;&gt;&lt;b&gt;Organization&lt;/b&gt;&lt;/p&gt;&lt;hr&gt;&lt;p style=&quot;margin: 0px ; margin-left: 8px&quot;&gt;&lt;span style=&quot;background-color: initial;&quot;&gt;groups: UserGroup[]&lt;/span&gt;&lt;br&gt;&lt;/p&gt;&lt;p style=&quot;margin: 0px ; margin-left: 8px&quot;&gt;&lt;span&gt;members: User[]&lt;/span&gt;&lt;/p&gt;&lt;p style=&quot;margin: 0px ; margin-left: 8px&quot;&gt;verification: Verification&lt;/p&gt;&lt;p style=&quot;margin: 0px ; margin-left: 8px&quot;&gt;storage: storageBucket&lt;/p&gt;" style="verticalAlign=top;align=left;overflow=fill;fontSize=12;fontFamily=Helvetica;html=1;strokeColor=#003366;shadow=1;fontColor=#003366;fillColor=#99FFCC;" parent="1" vertex="1">
          <mxGeometry x="1008" y="314" width="177" height="129" as="geometry" />
        </mxCell>
        <mxCell id="Io-MS7_X9WFdblsyxeVE-25" value="&lt;p style=&quot;margin: 0px ; margin-top: 4px ; text-align: center ; text-decoration: underline&quot;&gt;&lt;b&gt;CommunityInvitation&lt;/b&gt;&lt;/p&gt;&lt;hr&gt;&lt;p style=&quot;margin: 0px ; margin-left: 8px&quot;&gt;id: ID&lt;/p&gt;&lt;p style=&quot;margin: 0px ; margin-left: 8px&quot;&gt;contributor: Contributor&lt;/p&gt;&lt;p style=&quot;margin: 0px ; margin-left: 8px&quot;&gt;message: string&lt;/p&gt;&lt;p style=&quot;margin: 0px ; margin-left: 8px&quot;&gt;inviteToParent: boolean&lt;/p&gt;&lt;p style=&quot;margin: 0px ; margin-left: 8px&quot;&gt;&lt;br&gt;&lt;/p&gt;" style="verticalAlign=top;align=left;overflow=fill;fontSize=12;fontFamily=Helvetica;html=1;strokeColor=#003366;shadow=1;fillColor=#99FFCC;fontColor=#003366" parent="1" vertex="1">
          <mxGeometry x="1217" y="-122" width="149" height="99" as="geometry" />
        </mxCell>
        <mxCell id="Io-MS7_X9WFdblsyxeVE-26" value="0..n" style="endArrow=open;html=1;endSize=12;startArrow=diamondThin;startSize=14;startFill=1;edgeStyle=orthogonalEdgeStyle;align=left;verticalAlign=bottom;strokeWidth=1;entryX=0.25;entryY=1;entryDx=0;entryDy=0;exitX=1;exitY=0.5;exitDx=0;exitDy=0;" parent="1" source="szzaWboSxo6sRydHjCB_-29" target="Io-MS7_X9WFdblsyxeVE-25" edge="1">
          <mxGeometry relative="1" as="geometry">
            <mxPoint x="1113.9980000000005" y="79.28200000000015" as="sourcePoint" />
            <mxPoint x="1134.65" y="517.5799999999999" as="targetPoint" />
          </mxGeometry>
        </mxCell>
        <mxCell id="Io-MS7_X9WFdblsyxeVE-27" value="0..n" style="endArrow=open;html=1;endSize=12;startArrow=diamondThin;startSize=14;startFill=1;edgeStyle=orthogonalEdgeStyle;align=left;verticalAlign=bottom;strokeWidth=1;entryX=0.75;entryY=0;entryDx=0;entryDy=0;exitX=1;exitY=0.25;exitDx=0;exitDy=0;" parent="1" source="0po9gxngi8_i5DU3Apx4-30" target="Io-MS7_X9WFdblsyxeVE-22" edge="1">
          <mxGeometry relative="1" as="geometry">
            <mxPoint x="950" y="119" as="sourcePoint" />
            <mxPoint x="1237" y="166" as="targetPoint" />
          </mxGeometry>
        </mxCell>
        <mxCell id="Io-MS7_X9WFdblsyxeVE-28" value="&lt;p style=&quot;margin: 0px ; margin-top: 4px ; text-align: center ; text-decoration: underline&quot;&gt;&lt;b&gt;AiService&lt;/b&gt;&lt;/p&gt;&lt;hr&gt;&lt;p style=&quot;margin: 0px ; margin-left: 8px&quot;&gt;id: ID&lt;/p&gt;&lt;p style=&quot;margin: 0px ; margin-left: 8px&quot;&gt;url: string&lt;/p&gt;&lt;p style=&quot;margin: 0px ; margin-left: 8px&quot;&gt;config: JSON&amp;nbsp;&lt;/p&gt;" style="verticalAlign=top;align=left;overflow=fill;fontSize=12;fontFamily=Helvetica;html=1;strokeColor=#666666;shadow=1;fillColor=#FFE599;fontColor=#333333;" parent="1" vertex="1">
          <mxGeometry x="1435.5" y="503" width="160" height="99" as="geometry" />
        </mxCell>
        <mxCell id="Io-MS7_X9WFdblsyxeVE-29" value="" style="edgeStyle=orthogonalEdgeStyle;fontSize=12;html=1;endArrow=ERmandOne;startArrow=ERmandOne;exitX=0.5;exitY=1;exitDx=0;exitDy=0;entryX=0.5;entryY=0;entryDx=0;entryDy=0;" parent="1" source="Io-MS7_X9WFdblsyxeVE-22" target="Io-MS7_X9WFdblsyxeVE-28" edge="1">
          <mxGeometry width="100" height="100" relative="1" as="geometry">
            <mxPoint x="1418" y="796" as="sourcePoint" />
            <mxPoint x="1422" y="849" as="targetPoint" />
          </mxGeometry>
        </mxCell>
        <mxCell id="BgNwUCcEjjvmfO4e12St-30" value="&lt;p style=&quot;margin: 0px ; margin-top: 4px ; text-align: center ; text-decoration: underline&quot;&gt;&lt;b&gt;InnovationHub&lt;/b&gt;&lt;/p&gt;&lt;hr&gt;&lt;p style=&quot;margin: 0px ; margin-left: 8px&quot;&gt;id: ID&lt;/p&gt;&lt;p style=&quot;margin: 0px ; margin-left: 8px&quot;&gt;nameID: String&lt;/p&gt;&lt;p style=&quot;margin: 0px ; margin-left: 8px&quot;&gt;profile: Profile&lt;/p&gt;&lt;p style=&quot;margin: 0px ; margin-left: 8px&quot;&gt;subdomain: string&lt;/p&gt;&lt;p style=&quot;margin: 0px ; margin-left: 8px&quot;&gt;filterSpaces: string[]&lt;/p&gt;&lt;p style=&quot;margin: 0px ; margin-left: 8px&quot;&gt;filterVisibility: Visibility&lt;/p&gt;&lt;p style=&quot;margin: 0px ; margin-left: 8px&quot;&gt;&lt;br&gt;&lt;/p&gt;&lt;p style=&quot;margin: 0px ; margin-left: 8px&quot;&gt;&lt;br&gt;&lt;/p&gt;" style="verticalAlign=top;align=left;overflow=fill;fontSize=12;fontFamily=Helvetica;html=1;strokeColor=#0e8088;shadow=1;fillColor=#b0e3e6;opacity=60;" parent="1" vertex="1">
          <mxGeometry x="374" y="-197" width="228" height="139" as="geometry" />
        </mxCell>
        <mxCell id="Io-MS7_X9WFdblsyxeVE-32" value="&lt;p style=&quot;margin: 0px ; margin-top: 4px ; text-align: center ; text-decoration: underline&quot;&gt;&lt;b&gt;LicensePolicy&lt;/b&gt;&lt;/p&gt;&lt;hr&gt;&lt;p style=&quot;margin: 0px ; margin-left: 8px&quot;&gt;id: ID&lt;/p&gt;&lt;p style=&quot;margin: 0px ; margin-left: 8px&quot;&gt;credentialRules: CredentialRule[]&lt;/p&gt;" style="verticalAlign=top;align=left;overflow=fill;fontSize=12;fontFamily=Helvetica;html=1;strokeColor=#d79b00;shadow=1;fillColor=#FFFFCC;" parent="1" vertex="1">
          <mxGeometry x="-1165" y="-262" width="225" height="125" as="geometry" />
        </mxCell>
        <mxCell id="Io-MS7_X9WFdblsyxeVE-34" value="&lt;p style=&quot;margin: 0px ; margin-top: 4px ; text-align: center ; text-decoration: underline&quot;&gt;&lt;b&gt;LicenseCredentialRule&lt;/b&gt;&lt;/p&gt;&lt;hr&gt;&lt;p style=&quot;margin: 0px ; margin-left: 8px&quot;&gt;id: ID&lt;/p&gt;&lt;p style=&quot;margin: 0px ; margin-left: 8px&quot;&gt;grantedPrivilege: Privilege[]&lt;/p&gt;&lt;p style=&quot;margin: 0px ; margin-left: 8px&quot;&gt;&lt;span&gt;type: string&lt;/span&gt;&lt;br&gt;&lt;/p&gt;&lt;p style=&quot;margin: 0px ; margin-left: 8px&quot;&gt;resourceID: ID&lt;br&gt;&lt;/p&gt;" style="verticalAlign=top;align=left;overflow=fill;fontSize=12;fontFamily=Helvetica;html=1;strokeColor=#d79b00;shadow=1;fillColor=#FFFFCC;" parent="1" vertex="1">
          <mxGeometry x="-1151" y="-57" width="211" height="117" as="geometry" />
        </mxCell>
        <mxCell id="Io-MS7_X9WFdblsyxeVE-35" value="0..n" style="endArrow=open;html=1;endSize=12;startArrow=diamondThin;startSize=14;startFill=1;edgeStyle=orthogonalEdgeStyle;align=left;verticalAlign=bottom;strokeWidth=1;entryX=0.474;entryY=0.007;entryDx=0;entryDy=0;entryPerimeter=0;exitX=0.5;exitY=1;exitDx=0;exitDy=0;" parent="1" source="Io-MS7_X9WFdblsyxeVE-32" target="Io-MS7_X9WFdblsyxeVE-34" edge="1">
          <mxGeometry relative="1" as="geometry">
            <mxPoint x="-1274" y="-214" as="sourcePoint" />
            <mxPoint x="-1133" y="-144.4699999999999" as="targetPoint" />
          </mxGeometry>
        </mxCell>
        <mxCell id="Io-MS7_X9WFdblsyxeVE-40" value="&lt;p style=&quot;margin: 0px ; margin-top: 4px ; text-align: center ; text-decoration: underline&quot;&gt;&lt;b&gt;LicensingFramework&lt;/b&gt;&lt;/p&gt;&lt;hr&gt;&lt;p style=&quot;margin: 0px ; margin-left: 8px&quot;&gt;id: ID&lt;/p&gt;&lt;p style=&quot;margin: 0px ; margin-left: 8px&quot;&gt;plans: LicensePlan[]&lt;/p&gt;&lt;p style=&quot;margin: 0px ; margin-left: 8px&quot;&gt;licensePolicy: LicensePolicy&lt;/p&gt;" style="verticalAlign=top;align=left;overflow=fill;fontSize=12;fontFamily=Helvetica;html=1;strokeColor=#d79b00;shadow=1;fillColor=#FFFFCC;" parent="1" vertex="1">
          <mxGeometry x="-1286" y="-439" width="216" height="100.5" as="geometry" />
        </mxCell>
        <mxCell id="Io-MS7_X9WFdblsyxeVE-41" value="" style="edgeStyle=orthogonalEdgeStyle;fontSize=12;html=1;endArrow=ERmandOne;startArrow=ERmandOne;exitX=0.5;exitY=0;exitDx=0;exitDy=0;entryX=0.5;entryY=1;entryDx=0;entryDy=0;" parent="1" source="Io-MS7_X9WFdblsyxeVE-32" target="Io-MS7_X9WFdblsyxeVE-40" edge="1">
          <mxGeometry width="100" height="100" relative="1" as="geometry">
            <mxPoint x="-1632" y="119" as="sourcePoint" />
            <mxPoint x="-763" y="-410" as="targetPoint" />
          </mxGeometry>
        </mxCell>
        <mxCell id="Io-MS7_X9WFdblsyxeVE-42" value="&lt;p style=&quot;margin: 0px ; margin-top: 4px ; text-align: center ; text-decoration: underline&quot;&gt;&lt;b&gt;LicensePlan&lt;/b&gt;&lt;/p&gt;&lt;hr&gt;&lt;p style=&quot;margin: 0px ; margin-left: 8px&quot;&gt;id: ID&lt;/p&gt;&lt;p style=&quot;margin: 0px ; margin-left: 8px&quot;&gt;name: string&lt;/p&gt;&lt;p style=&quot;margin: 0px ; margin-left: 8px&quot;&gt;trialEnabled: boolean&lt;/p&gt;&lt;p style=&quot;margin: 0px ; margin-left: 8px&quot;&gt;price: number&lt;/p&gt;&lt;p style=&quot;margin: 0px ; margin-left: 8px&quot;&gt;credential: LicenseCredential&lt;/p&gt;" style="verticalAlign=top;align=left;overflow=fill;fontSize=12;fontFamily=Helvetica;html=1;strokeColor=#d79b00;shadow=1;fillColor=#FFFFCC;" parent="1" vertex="1">
          <mxGeometry x="-1434" y="-262" width="216" height="123" as="geometry" />
        </mxCell>
        <mxCell id="Io-MS7_X9WFdblsyxeVE-43" value="0..n" style="endArrow=open;html=1;endSize=12;startArrow=diamondThin;startSize=14;startFill=1;edgeStyle=orthogonalEdgeStyle;align=left;verticalAlign=bottom;strokeWidth=1;entryX=0.5;entryY=0;entryDx=0;entryDy=0;fillColor=#b0e3e6;strokeColor=#0e8088;opacity=60;exitX=0.25;exitY=1;exitDx=0;exitDy=0;" parent="1" source="Io-MS7_X9WFdblsyxeVE-40" target="Io-MS7_X9WFdblsyxeVE-42" edge="1">
          <mxGeometry relative="1" as="geometry">
            <mxPoint x="-901" y="325" as="sourcePoint" />
            <mxPoint x="-1108" y="293" as="targetPoint" />
          </mxGeometry>
        </mxCell>
        <mxCell id="Io-MS7_X9WFdblsyxeVE-44" value="" style="edgeStyle=orthogonalEdgeStyle;fontSize=12;html=1;endArrow=ERmandOne;startArrow=ERmandOne;exitX=0.5;exitY=0;exitDx=0;exitDy=0;entryX=0;entryY=0.5;entryDx=0;entryDy=0;" parent="1" source="Io-MS7_X9WFdblsyxeVE-40" target="g8zVUVb651xDIeDNfFYw-45" edge="1">
          <mxGeometry width="100" height="100" relative="1" as="geometry">
            <mxPoint x="-1152" y="-89" as="sourcePoint" />
            <mxPoint x="-1278" y="-165" as="targetPoint" />
          </mxGeometry>
        </mxCell>
        <mxCell id="my70nzYZ5iTI-TDnK53k-22" value="&lt;p style=&quot;margin: 0px ; margin-top: 4px ; text-align: center ; text-decoration: underline&quot;&gt;&lt;b&gt;LicensePrivilege&lt;/b&gt;&lt;/p&gt;&lt;hr&gt;&lt;p style=&quot;margin: 0px ; margin-left: 8px&quot;&gt;&lt;span style=&quot;background-color: initial;&quot;&gt;type: string&lt;/span&gt;&lt;br&gt;&lt;/p&gt;" style="verticalAlign=top;align=left;overflow=fill;fontSize=12;fontFamily=Helvetica;html=1;strokeColor=#d79b00;shadow=1;fillColor=#FFFFCC;" parent="1" vertex="1">
          <mxGeometry x="-1437" y="-79" width="161" height="68" as="geometry" />
        </mxCell>
        <mxCell id="my70nzYZ5iTI-TDnK53k-23" value="&lt;p style=&quot;margin: 0px ; margin-top: 4px ; text-align: center ; text-decoration: underline&quot;&gt;&lt;b&gt;LicenseFeature&lt;/b&gt;&lt;/p&gt;&lt;p style=&quot;margin: 0px ; margin-left: 8px&quot;&gt;&lt;span style=&quot;background-color: initial;&quot;&gt;name: string&lt;/span&gt;&lt;br&gt;&lt;/p&gt;" style="verticalAlign=top;align=left;overflow=fill;fontSize=12;fontFamily=Helvetica;html=1;strokeColor=#d79b00;shadow=1;fillColor=#FFFFCC;" parent="1" vertex="1">
          <mxGeometry x="-1437" y="26" width="161" height="68" as="geometry" />
        </mxCell>
      </root>
    </mxGraphModel>
  </diagram>
</mxfile>
